<?xml version="1.0" encoding="UTF-8" standalone="no"?>
<!-- Created with Inkscape (http://www.inkscape.org/) -->

<svg
   xmlns:dc="http://purl.org/dc/elements/1.1/"
   xmlns:cc="http://creativecommons.org/ns#"
   xmlns:rdf="http://www.w3.org/1999/02/22-rdf-syntax-ns#"
   xmlns:svg="http://www.w3.org/2000/svg"
   xmlns="http://www.w3.org/2000/svg"
   xmlns:sodipodi="http://sodipodi.sourceforge.net/DTD/sodipodi-0.dtd"
   xmlns:inkscape="http://www.inkscape.org/namespaces/inkscape"
   width="744.09448"
   height="1052.3622"
   id="svg2"
   version="1.1"
   inkscape:version="0.48.5 r10040"
   sodipodi:docname="back.svg">
  <defs
     id="defs4">
    <inkscape:perspective
       sodipodi:type="inkscape:persp3d"
       inkscape:vp_x="0 : 526.18109 : 1"
       inkscape:vp_y="0 : 1000 : 0"
       inkscape:vp_z="744.09448 : 526.18109 : 1"
       inkscape:persp3d-origin="372.04724 : 350.78739 : 1"
       id="perspective10" />
    <inkscape:perspective
       id="perspective3254"
       inkscape:persp3d-origin="0.5 : 0.33333333 : 1"
       inkscape:vp_z="1 : 0.5 : 1"
       inkscape:vp_y="0 : 1000 : 0"
       inkscape:vp_x="0 : 0.5 : 1"
       sodipodi:type="inkscape:persp3d" />
    <clipPath
       clipPathUnits="userSpaceOnUse"
       id="clipPath3075">
      <path
         d="m 0,0 188.92828,0 0,230.9108 L 0,230.9108 0,0 z"
         id="path3077" />
    </clipPath>
    <inkscape:perspective
       id="perspective3254-4"
       inkscape:persp3d-origin="0.5 : 0.33333333 : 1"
       inkscape:vp_z="1 : 0.5 : 1"
       inkscape:vp_y="0 : 1000 : 0"
       inkscape:vp_x="0 : 0.5 : 1"
       sodipodi:type="inkscape:persp3d" />
    <clipPath
       clipPathUnits="userSpaceOnUse"
       id="clipPath3075-4">
      <path
         d="m 0,0 188.92828,0 0,230.9108 L 0,230.9108 0,0 z"
         id="path3077-3" />
    </clipPath>
    <inkscape:perspective
       id="perspective3114"
       inkscape:persp3d-origin="0.5 : 0.33333333 : 1"
       inkscape:vp_z="1 : 0.5 : 1"
       inkscape:vp_y="0 : 1000 : 0"
       inkscape:vp_x="0 : 0.5 : 1"
       sodipodi:type="inkscape:persp3d" />
    <clipPath
       clipPathUnits="userSpaceOnUse"
       id="clipPath232">
      <path
         d="m 0,0 398.38339,0 0,129.09958 L 0,129.09958 0,0 z"
         id="path234" />
    </clipPath>
    <inkscape:perspective
       id="perspective3142"
       inkscape:persp3d-origin="0.5 : 0.33333333 : 1"
       inkscape:vp_z="1 : 0.5 : 1"
       inkscape:vp_y="0 : 1000 : 0"
       inkscape:vp_x="0 : 0.5 : 1"
       sodipodi:type="inkscape:persp3d" />
    <inkscape:perspective
       id="perspective4378"
       inkscape:persp3d-origin="0.5 : 0.33333333 : 1"
       inkscape:vp_z="1 : 0.5 : 1"
       inkscape:vp_y="0 : 1000 : 0"
       inkscape:vp_x="0 : 0.5 : 1"
       sodipodi:type="inkscape:persp3d" />
    <inkscape:perspective
       id="perspective2845"
       inkscape:persp3d-origin="0.5 : 0.33333333 : 1"
       inkscape:vp_z="1 : 0.5 : 1"
       inkscape:vp_y="0 : 1000 : 0"
       inkscape:vp_x="0 : 0.5 : 1"
       sodipodi:type="inkscape:persp3d" />
    <inkscape:perspective
       id="perspective2845-1"
       inkscape:persp3d-origin="0.5 : 0.33333333 : 1"
       inkscape:vp_z="1 : 0.5 : 1"
       inkscape:vp_y="0 : 1000 : 0"
       inkscape:vp_x="0 : 0.5 : 1"
       sodipodi:type="inkscape:persp3d" />
    <filter
       color-interpolation-filters="sRGB"
       inkscape:collect="always"
       id="filter5460">
      <feGaussianBlur
         inkscape:collect="always"
         stdDeviation="15.795357"
         id="feGaussianBlur5462" />
    </filter>
    <filter
       inkscape:collect="always"
       id="filter3815">
      <feGaussianBlur
         inkscape:collect="always"
         stdDeviation="6.4346614"
         id="feGaussianBlur3817" />
    </filter>
  </defs>
  <sodipodi:namedview
     id="base"
     pagecolor="#ffffff"
     bordercolor="#666666"
     borderopacity="1.0"
     inkscape:pageopacity="0.0"
     inkscape:pageshadow="2"
     inkscape:zoom="0.81542967"
     inkscape:cx="488.60436"
     inkscape:cy="626.64693"
     inkscape:document-units="mm"
     inkscape:current-layer="layer1"
     showgrid="false"
     showguides="true"
     inkscape:guide-bbox="true"
     units="mm"
     inkscape:window-width="2560"
     inkscape:window-height="1480"
     inkscape:window-x="0"
     inkscape:window-y="41"
     inkscape:window-maximized="1">
    <sodipodi:guide
       orientation="0,1"
       position="682.08661,1000.9843"
       id="guide2820" />
    <sodipodi:guide
       orientation="1,0"
       position="88.582677,1045.2756"
       id="guide2822" />
    <sodipodi:guide
       orientation="1,0"
       position="673.22835,102.75591"
       id="guide2824" />
    <inkscape:grid
       type="xygrid"
       id="grid2828"
       empspacing="5"
       visible="true"
       enabled="true"
       snapvisiblegridlinesonly="true"
       units="mm"
       spacingx="0.5mm"
       spacingy="0.5mm" />
    <sodipodi:guide
       orientation="1,0"
       position="398.62205,868.11024"
       id="guide2830" />
    <sodipodi:guide
       orientation="0,1"
       position="218.52395,52.029511"
       id="guide4180" />
    <sodipodi:guide
       orientation="1,0"
       position="42.519685,708.66142"
       id="guide4788" />
    <sodipodi:guide
       orientation="0,1"
       position="301.1811,186.02362"
       id="guide4820" />
  </sodipodi:namedview>
  <metadata
     id="metadata7">
    <rdf:RDF>
      <cc:Work
         rdf:about="">
        <dc:format>image/svg+xml</dc:format>
        <dc:type
           rdf:resource="http://purl.org/dc/dcmitype/StillImage" />
        <dc:title />
      </cc:Work>
    </rdf:RDF>
  </metadata>
  <g
     inkscape:label="Layer 1"
     inkscape:groupmode="layer"
     id="layer1"
     transform="translate(0,-2.5390623e-6)">
    <text
       id="text2883"
       y="177.36218"
       x="425"
       style="font-size:11px;font-style:normal;font-variant:normal;font-weight:normal;font-stretch:normal;text-align:start;text-anchor:start;fill:#000000;fill-opacity:1;stroke:none;font-family:Serif;-inkscape-font-specification:Serif"
       xml:space="preserve"><tspan
         y="177.36218"
         x="425"
         id="tspan2885"
         sodipodi:role="line" /></text>
    <g
       id="g4227"
       transform="matrix(1.2040665,0,0,-1.2040665,100.56562,675.0365)" />
    <g
       id="g3034"
       transform="matrix(2.345787,0,0,2.345787,-2940.8732,-1228.3848)"
       style="filter:url(#filter3815);opacity:0.3">
      <path
         id="path34"
         style="fill:#15356f;fill-opacity:1;fill-rule:nonzero;stroke:none"
         d="m 1471.9824,657.86898 c 2.077,23.7434 -14.7299,40.89301 -48.3684,72.38525 -4.3506,3.94843 -8.3202,7.72254 -12.0905,11.48613 -11.7169,11.49449 -20.4039,22.04627 -26.8412,31.85021 -10.203,15.65235 -13.9837,29.22151 -13.0307,41.1043 1.8761,13.75902 6.4201,24.31103 13.0307,32.22784 6.8078,8.48615 16.0601,13.95963 26.8412,17.53515 0.1868,0.20091 0.381,0.20091 0.5527,0.20091 7.7444,2.05936 12.2906,2.05936 19.8565,1.6798 64.9894,-7.15978 115.2414,-62.57295 115.2414,-129.5025 0,-71.6129 -57.9942,-130.25258 -129.0377,-130.25258 -2.2705,0 -4.5395,0.19867 -6.6166,0.19867 -0.9642,0.19195 -1.8956,0.19195 -2.6566,0.19195 0.761,0.37119 1.6924,0.56986 2.6566,0.75061 31.1701,9.05564 57.4445,25.25522 60.4589,50.14471"
         inkscape:connector-curvature="0" />
      <path
         id="path36"
         style="fill:#bcbfc6;fill-opacity:1;fill-rule:nonzero;stroke:none"
         d="m 1297.5735,794.15355 c -0.01,-0.0224 -0.075,-0.0672 -0.075,-0.0963 0,0.0963 0.075,0.11576 0.075,0.0963"
         inkscape:connector-curvature="0" />
      <path
         id="path38"
         style="fill:#f2581a;fill-opacity:1;fill-rule:nonzero;stroke:none"
         d="m 1411.5235,652.19877 c 1.6932,4.1539 2.8232,8.48653 2.8232,12.82976 0,6.98314 -0.9403,12.44332 -2.8232,17.5288 -3.7829,9.4131 -11.9149,16.78043 -26.8412,27.51759 -5.8555,4.3327 -12.664,8.85742 -20.5943,14.52927 -4.5261,2.99953 -8.678,6.01638 -12.6521,8.83502 -4.9219,3.39664 -9.259,6.81277 -13.2361,10.00447 -26.4439,20.93209 -35.8994,36.18068 -32.873,53.33858 5.2789,16.97245 18.5143,30.91677 32.873,41.66304 4.3483,3.4053 8.8729,6.41805 13.2361,9.24094 6.987,4.32598 13.7888,7.90366 19.0797,10.74403 -5.8622,-3.96165 -12.6663,-9.05549 -19.0797,-15.08965 -4.7232,-4.13612 -9.259,-8.65853 -13.2361,-13.567 -9.8162,-11.49882 -17.1991,-24.12558 -17.3716,-36.18919 -0.3884,-13.02409 4.3416,-24.51186 17.3716,-38.4564 3.5977,-3.96793 8.1312,-8.09561 13.2361,-12.63766 6.987,-6.03371 15.1071,-12.61981 24.9457,-19.77331 2.8246,-2.45834 5.659,-4.52637 8.3007,-6.59887 11.1584,-8.67646 20.0327,-15.28429 26.8412,-21.50345 10.5736,-9.6096 15.4955,-17.72538 15.3035,-30.15526 -0.761,-11.14151 -6.6076,-20.36244 -15.3035,-27.90185 -7.3649,-6.20684 -16.6321,-11.11919 -26.8412,-14.8827 -5.668,-2.07646 -11.7147,-3.7697 -17.7554,-4.89502 6.2296,2.06354 12.0874,4.89502 17.7554,8.09337 12.1009,7.16851 22.1053,16.58833 26.8412,27.32549"
         inkscape:connector-curvature="0" />
      <path
         id="path40"
         style="fill:#f2581a;fill-opacity:1;fill-rule:nonzero;stroke:none"
         d="m 1439.8555,663.52126 c -0.7551,19.7928 -5.1056,31.29178 -28.332,50.68806 -5.2901,4.3522 -11.3465,9.06401 -18.5195,14.33486 -2.8463,2.26632 -5.6628,4.34772 -8.3217,6.42022 -14.1667,10.73716 -25.1204,19.7928 -33.2464,27.7008 -6.0497,6.03655 -10.3958,11.50338 -13.2361,16.78267 -4.14,7.34724 -5.4776,14.70568 -3.9637,22.62256 0.9403,4.33883 2.269,8.29219 3.9637,12.06817 3.2227,7.5241 7.943,14.12327 13.2361,20.15302 10.0111,11.11926 22.4735,19.61415 33.2464,25.62867 2.2668,1.32421 4.5373,2.65708 6.8078,3.7762 -2.2705,-1.7016 -4.541,-3.38573 -6.8078,-5.0742 -17.5702,-13.95313 -32.6795,-33.9381 -33.0701,-56.55186 -0.1793,-17.53716 8.8826,-32.61419 33.0701,-56.36887 6.0557,-5.84214 13.0435,-12.43884 21.1717,-19.60071 1.8866,-1.691 3.774,-3.38379 5.6695,-5.10049 30.0461,-27.12727 41.5622,-40.72272 39.4918,-63.13138 -0.9395,-20.37141 -18.1386,-32.81032 -39.4918,-40.54176 -7.3649,-2.43668 -15.3117,-4.51807 -23.248,-6.02982 7.9363,2.63318 15.8831,6.42238 23.248,11.12359 16.0624,10.36245 28.53,25.26867 28.332,41.10027"
         inkscape:connector-curvature="0" />
      <path
         id="path42"
         style="fill:#f2581a;fill-opacity:1;fill-rule:nonzero;stroke:none"
         d="m 1297.5212,794.0575 c -0.2988,-0.84441 -2.0158,-7.26239 -1.8351,-11.21747 4.1601,-29.96316 23.0479,-43.35143 42.5137,-56.37724 4.1608,-2.81191 8.5129,-5.64787 12.8492,-8.66301 0,-0.17851 0.1867,-0.17851 0.3884,-0.35551 13.6014,-9.07126 25.1241,-16.7894 33.2464,-24.5097 8.7064,-8.30952 13.4184,-16.80441 13.0435,-27.14901 -0.7619,-8.67197 -5.4717,-16.6017 -13.0435,-23.37093 -8.3008,-7.36069 -20.0289,-13.2029 -33.2464,-16.97649 -0.7573,-0.20315 -1.7111,-0.37941 -2.4632,-0.56538 0.7521,0.36223 1.7059,0.76121 2.4632,1.13204 16.6269,7.36285 28.338,15.45629 33.2464,28.27268 1.3212,3.59098 2.0763,7.36285 2.4602,11.69323 0,5.26361 -0.7543,9.99559 -2.4602,14.30641 -3.9644,10.75284 -13.7895,20.0023 -33.2464,31.68665 -3.7829,2.24503 -7.9393,4.71629 -12.6663,7.15342 -0.1867,0.20689 -0.3734,0.3839 -0.5676,0.5975 -25.8792,14.11655 -51.9527,34.10205 -44.5877,63.88648 0.3659,2.01104 3.2437,9.21869 3.9091,10.45574"
         inkscape:connector-curvature="0" />
      <path
         id="path44"
         style="fill:#f2581a;fill-opacity:1;fill-rule:nonzero;stroke:none"
         d="m 1351.4359,700.46532 c 10.0111,-8.69319 16.627,-18.85294 17.7555,-32.04463 0.1942,-13.57977 -6.9982,-22.8119 -17.7555,-28.64963 -3.9734,-2.10096 -8.5174,-3.58426 -13.2361,-4.90839 -1.3153,-0.20091 -2.6462,-0.55717 -3.9637,-0.75726 1.3175,0.55642 2.6484,0.94883 3.9637,1.52071 5.2968,2.25116 9.6317,4.87994 13.2361,8.2721 6.0422,6.04932 9.2516,14.13657 9.0589,25.28652 -0.3735,7.51088 -3.5858,14.50015 -9.0589,21.2761 -3.4125,4.3522 -7.9393,8.48653 -13.2361,12.63766 -11.1471,8.86579 -26.2587,17.90186 -44.7797,27.90186 16.2371,-6.77596 31.9394,-13.37931 44.7797,-21.1153 4.7187,-2.81415 9.2627,-6.02923 13.2361,-9.41974"
         inkscape:connector-curvature="0" />
      <path
         id="path46"
         style="fill:#f2581a;fill-opacity:1;fill-rule:nonzero;stroke:none"
         d="m 1321.1949,694.42937 c 6.7936,0 13.0412,-3.39889 17.0049,-8.47092 2.6402,-3.78531 4.3483,-8.29667 4.3483,-13.21798 0,-4.88046 -1.7081,-9.41355 -4.3483,-12.99564 -3.9637,-5.26585 -10.2113,-8.48152 -17.0049,-8.48152 -11.7125,0 -21.3487,9.61416 -21.3487,21.47716 0,11.88488 9.6362,21.6889 21.3487,21.6889"
         inkscape:connector-curvature="0" />
    </g>
  </g>
</svg>
