<?xml version="1.0" encoding="UTF-8" standalone="no"?>
<!-- Created with Inkscape (http://www.inkscape.org/) -->

<svg
   xmlns:dc="http://purl.org/dc/elements/1.1/"
   xmlns:cc="http://creativecommons.org/ns#"
   xmlns:rdf="http://www.w3.org/1999/02/22-rdf-syntax-ns#"
   xmlns:svg="http://www.w3.org/2000/svg"
   xmlns="http://www.w3.org/2000/svg"
   xmlns:sodipodi="http://sodipodi.sourceforge.net/DTD/sodipodi-0.dtd"
   xmlns:inkscape="http://www.inkscape.org/namespaces/inkscape"
   id="svg2"
   version="1.1"
   inkscape:version="0.48.5 r10040"
   width="154.75887"
   height="155"
   sodipodi:docname="besna.png">
  <metadata
     id="metadata8">
    <rdf:RDF>
      <cc:Work
         rdf:about="">
        <dc:format>image/svg+xml</dc:format>
        <dc:type
           rdf:resource="http://purl.org/dc/dcmitype/StillImage" />
        <dc:title></dc:title>
      </cc:Work>
    </rdf:RDF>
  </metadata>
  <defs
     id="defs6" />
  <sodipodi:namedview
     pagecolor="#ffffff"
     bordercolor="#666666"
     borderopacity="1"
     objecttolerance="10"
     gridtolerance="10"
     guidetolerance="10"
     inkscape:pageopacity="0"
     inkscape:pageshadow="2"
     inkscape:window-width="2560"
     inkscape:window-height="1480"
     id="namedview4"
     showgrid="false"
     fit-margin-top="0"
     fit-margin-left="0"
     fit-margin-right="0"
     fit-margin-bottom="0"
     inkscape:zoom="3.337544"
     inkscape:cx="281.18691"
     inkscape:cy="49.11918"
     inkscape:window-x="0"
     inkscape:window-y="41"
     inkscape:window-maximized="1"
     inkscape:current-layer="svg2" />
  <g
     id="g2987"
     transform="translate(-23.241132,-22)">
    <path
       style="fill:#c6c7ca"
       d="m 57,176.41302 c 0,-0.32284 4.95,-5.82464 11,-12.22621 6.05,-6.40157 11,-12.03294 11,-12.51414 0,-0.4812 -5.001154,-6.21875 -11.113676,-12.75012 L 56.772648,127.04733 40.218657,126.77366 C 29.736265,126.60037 23.536099,126.1132 23.314134,125.4454 23.121342,124.86538 27.921792,119.16908 33.981801,112.78697 40.041811,106.40486 45,100.6743 45,100.05241 45,99.430507 40.012813,93.763362 33.917363,87.458752 27.821913,81.154141 23.021111,75.434262 23.248916,74.747911 23.547573,73.848091 28.154437,73.360531 39.764597,73 L 55.866088,72.5 67.018399,60.751674 78.17071,49.003347 75.158916,45.251674 C 73.50243,43.188253 68.51402,37.910557 64.073561,33.52346 52.436576,22.026318 52.455522,22 72.369394,22 l 16.369395,0 12.385681,13 12.38569,13 15.1859,0 c 8.96657,0 15.43707,0.406388 15.79917,0.992288 0.3373,0.545759 -4.22564,6.058259 -10.13986,12.25 L 123.60224,72.5 l 14.57975,0.276051 14.57974,0.276051 12.61914,12.942573 C 172.32139,93.113091 178,99.432685 178,100.03822 c 0,0.60553 -4.5523,5.90715 -10.11623,11.78137 C 151.95154,128.64037 155.0787,127 138.94424,127 130.12356,127 125,127.37515 125,128.021 c 0,0.56155 4.53559,5.74228 10.07909,11.51273 5.5435,5.77046 9.89395,11.04851 9.66767,11.729 -0.29986,0.90175 -4.91524,1.31155 -17.01968,1.51118 L 111.11883,153.04782 99.89516,165.02391 88.671486,177 72.835743,177 C 64.126084,177 57,176.73586 57,176.41302 z m 40.735197,-62.50817 c 6.470643,-6.65233 11.921983,-12.78799 12.114083,-13.63479 0.206,-0.908045 -4.29973,-6.201881 -10.983686,-12.904848 L 87.532624,76 73.766312,76 C 66.19484,76 60,76.269499 60,76.598887 c 0,0.329388 4.725,5.564769 10.5,11.634179 5.775,6.06941 10.5,11.450219 10.5,11.957354 0,0.50713 -4.95,6.08642 -11,12.39842 -6.05,6.312 -11,11.91169 -11,12.44376 0,0.57537 5.464683,0.9674 13.485197,0.9674 l 13.485197,0 11.764803,-12.09515 z"
       id="path3001"
       inkscape:connector-curvature="0" />
    <path
       style="fill:#a7b4c7"
       d="m 99.32602,140.44677 c -5.954311,-6.35428 -10.96044,-12.35772 -11.124731,-13.34097 -0.192198,-1.15028 3.819258,-6.08599 11.25,-13.84206 C 105.80308,106.63386 111,100.67325 111,100.01794 111,99.362639 105.9375,93.477955 99.75,86.94087 L 88.5,75.055261 73.25,75.02763 C 64.8625,75.012434 58,75.259268 58,75.576152 c 0,0.316883 4.8375,5.727845 10.75,12.02436 5.9125,6.296515 10.901307,11.891168 11.086238,12.432558 0.184931,0.5414 -4.990069,6.55888 -11.5,13.37219 L 56.5,125.79309 40.676676,125.89655 c -13.436835,0.0878 -15.77456,-0.11824 -15.5,-1.36641 C 25.354504,123.72172 30.1125,118.13134 35.75,112.10708 41.3875,106.08281 46,100.5948 46,99.911508 46,99.228214 41.020537,93.573296 34.934527,87.345024 28.848517,81.116752 24.150074,75.566192 24.493544,75.010446 24.870126,74.401124 31.18891,74 40.410796,74 L 55.703558,74 67.351779,61.594641 C 73.758301,54.771694 79,48.869554 79,48.478776 79,48.087998 74.05,42.697549 68,36.5 61.95,30.302451 57,24.738164 57,24.134917 57,22.287441 61.229305,21.822729 74.897025,22.168408 L 88.007737,22.5 100.75387,35.771747 113.5,49.043493 l 14.75,-0.02175 c 10.42437,-0.01537 14.75,0.31403 14.75,1.123222 0,0.629734 -4.5,5.717895 -10,11.307026 -5.5,5.589131 -10,10.698895 -10,11.355031 C 123,73.677144 126.99716,74 137.76975,74 l 14.76975,0 8.99887,9.25 c 14.86463,15.279466 15.76571,16.384227 14.78819,18.13095 -0.48403,0.86492 -6.00121,6.75803 -12.2604,13.09581 L 152.68581,126 l -14.28389,0 c -9.17514,0 -14.52332,0.38741 -14.95333,1.08318 -0.37262,0.60292 4.07621,5.89902 10.03402,11.94496 5.8869,5.97398 10.41003,11.33655 10.0514,11.91682 C 143.11962,151.61547 136.9174,152 126.517,152 l -16.36496,0 -10.82602,-11.55323 z"
       id="path2999"
       inkscape:connector-curvature="0" />
    <path
       style="fill:#8f9eb6"
       d="M 111.77862,151.17667 C 110.00417,150.47286 88,127.52032 88,126.3732 c 0,-0.35343 3.9375,-4.74449 8.75,-9.7579 15.1061,-15.73675 15.54052,-16.27376 14.56919,-18.009421 -0.48808,-0.872155 -6.00778,-6.765268 -12.266004,-13.095807 L 87.674604,74 72.837302,74 C 62.962531,74 58,73.642016 58,72.929677 58,72.340999 62.725,67.014074 68.5,61.092066 74.275,55.170058 79,49.662544 79,48.853146 79,48.043747 74.275,42.386071 68.5,36.280532 62.725,30.174993 58,24.689153 58,24.089776 58,23.352082 62.82233,23 72.926244,23 l 14.926244,0 12.323752,12.99497 12.32376,12.994971 14.75,0.005 c 11.29595,0.0039 14.75,0.304027 14.75,1.28185 0,0.70225 -3.18381,4.41475 -7.07513,8.25 -10.35746,10.208209 -13.5809,14.444586 -11.83284,15.551221 0.77438,0.490233 7.74978,0.898224 15.50088,0.906646 L 152.68581,75 l 11.4071,11.534161 c 6.2739,6.343788 11.51446,12.306288 11.64569,13.25 0.14269,1.026099 -4.49196,6.640149 -11.52945,13.965839 L 152.4411,126 l -15.30389,0 c -9.36365,0 -15.17449,0.37339 -14.97054,0.96198 0.18333,0.52908 4.97469,5.92535 10.64747,11.99171 5.67278,6.06635 10.03372,11.48346 9.69098,12.03802 -0.69841,1.13005 -27.93044,1.29398 -30.7265,0.18496 z M 25.479031,124.96607 C 25.12758,124.39741 29.866932,118.78264 36.010926,112.48881 42.15492,106.19497 47.028414,100.5962 46.840912,100.0471 46.65341,99.49799 41.633717,93.86636 35.686037,87.532364 29.738357,81.198367 25.152415,75.562405 25.495054,75.008003 25.867288,74.405715 31.949405,74 40.606139,74 l 14.488104,0 11.702879,12.116485 c 6.436583,6.664066 11.849564,12.745246 12.028847,13.513733 0.179283,0.768492 -4.949916,7.016072 -11.398221,13.883512 L 55.703558,126 40.910796,126 c -9.106769,0 -15.03838,-0.39742 -15.431765,-1.03393 z"
       id="path2997"
       inkscape:connector-curvature="0" />
    <path
       style="fill:#7288a9"
       d="M 100.16896,138.9824 C 93.936895,132.3845 88.986895,126.55985 89.168964,126.03875 89.351034,125.51764 94.5625,119.70629 100.75,113.12462 106.9375,106.54296 112,100.44056 112,99.563739 112,98.686914 106.7629,92.576372 100.36201,85.984756 L 88.724011,74 73.862005,74 C 63.729063,74 59,73.650336 59,72.901113 59,72.296725 63.725,66.836344 69.5,60.766934 75.275,54.697524 80,49.201214 80,48.552912 80,47.904611 78.607422,46.052491 76.905382,44.437091 75.203343,42.821691 70.204649,37.5625 65.797173,32.75 L 57.783582,24 l 14.94148,0 14.941481,0 12.871727,13 12.87173,13 13.795,0 c 7.58725,0 13.795,0.264758 13.795,0.588352 0,0.323594 -4.50485,5.371532 -10.01079,11.217641 -5.50593,5.846109 -9.85643,11.093851 -9.66777,11.661648 0.21084,0.634542 6.32102,1.138179 15.85628,1.306967 l 15.51326,0.274609 11.79414,12.540233 11.79414,12.54023 -3.8755,4.18516 c -2.13153,2.30184 -7.47193,7.89766 -11.86756,12.43516 l -7.99204,8.25 -14.80347,0 c -12.23145,0 -14.9034,0.26043 -15.37865,1.49893 -0.37664,0.9815 2.91359,5.15305 9.53138,12.08443 5.55862,5.82202 10.10658,10.99751 10.10658,11.50107 0,0.51454 -6.67972,0.91088 -15.25,0.90487 L 111.5,150.97859 100.16896,138.9824 z M 26,124.4153 c 0,-0.32159 4.6125,-5.52728 10.25,-11.5682 5.6375,-6.04092 10.397069,-11.63597 10.57682,-12.43345 0.179751,-0.797473 -4.432749,-6.452165 -10.25,-12.56598 C 30.759569,81.733855 26,76.342023 26,75.865821 26,75.38962 32.683301,75 40.851779,75 l 14.851779,0 11.785705,12.551779 11.785704,12.551781 -2.863993,3.19822 C 74.835778,105.0608 69.495298,110.6625 64.543241,115.75 L 55.539501,125 40.76975,125 C 32.646388,125 26,124.73688 26,124.4153 z"
       id="path2995"
       inkscape:connector-curvature="0" />
    <path
       style="fill:#5c78a7"
       d="M 101.33824,139.25 C 95.141962,132.7875 90.056017,126.88304 90.03614,126.12897 90.016263,125.3749 95.175,119.46687 101.5,113 107.825,106.53313 113,100.42474 113,99.425796 113,97.632764 93.376657,76.639661 89.5,74.285435 c -1.314329,-0.798168 -6.911493,-1.226713 -16.326086,-1.25 L 58.847827,73 69.923914,61.037918 C 76.015761,54.458772 81,48.79625 81,48.454534 81,48.112818 75.9375,42.583255 69.75,36.166616 L 58.5,24.5 72.920411,24.221504 87.340822,23.943008 100.42041,37.496016 113.5,51.049023 126.90483,51.024512 140.30967,51 130.08356,61.510673 c -6.54685,6.729035 -10.10593,11.136466 -9.89211,12.25 0.29825,1.553229 2.0656,1.768699 16.51818,2.013844 l 16.18421,0.274517 10.80308,11.53397 c 5.94169,6.343684 10.95296,11.957283 11.13614,12.474666 0.18318,0.51738 -4.95344,6.34106 -11.41471,12.94151 L 151.67057,125 136.33529,125 C 123.43467,125 121,125.23593 121,126.48603 c 0,0.81731 4.5,6.15809 10,11.86838 5.5,5.7103 10,10.89158 10,11.51397 C 141,150.6574 136.70159,151 126.8021,151 l -14.1979,0 -11.26596,-11.75 z M 27,124.07169 c 0,-0.51057 4.725,-5.85923 10.5,-11.88591 C 43.275,106.1591 48,100.7284 48,100.11755 48,99.5067 43.275,94.116243 37.5,88.138754 31.725,82.161266 27,76.75971 27,76.135297 27,75.34275 31.191459,75 40.883445,75 l 13.883445,0 11.669826,12.104129 c 6.418404,6.65727 11.533354,12.695123 11.366555,13.417451 -0.166799,0.72232 -5.375897,6.52547 -11.575773,12.89587 L 54.954995,125 40.977498,125 C 33.045439,125 27,124.59849 27,124.07169 z"
       id="path2993"
       inkscape:connector-curvature="0" />
    <path
       style="fill:#4a6790"
       d="M 103.44969,140.75 C 98.493749,135.6625 93.380229,130.28223 92.086314,128.79384 L 89.733741,126.08768 102.11687,112.64207 114.5,99.196455 l 13.83333,-0.09823 c 8.08542,-0.05741 13.69483,-0.485815 13.5,-1.031021 C 141.65,97.554171 137.3375,92.640966 132.25,87.148973 127.1625,81.65698 123,76.901737 123,76.581766 123,76.261795 129.45226,76 137.33836,76 l 14.33835,0 11.16165,11.42255 C 168.97726,93.704953 174,99.381294 174,100.03664 c 0,0.65535 -4.80041,6.2027 -10.66759,12.32745 L 152.66482,123.5 137.09437,124 c -19.26488,0.61864 -19.5103,0.91489 -9.42574,11.37788 3.7755,3.91716 8.40785,8.80962 10.29412,10.87212 l 3.42958,3.75 -14.46591,0 -14.46592,0 -9.01081,-9.25 z M 27.70538,124.37205 c -0.345375,-0.34538 4.079625,-5.62895 9.833333,-11.74127 C 43.292421,106.51845 48,100.91196 48,100.1719 48,99.431845 43.270308,93.802917 37.489573,87.663172 L 26.979146,76.5 41.236741,76.221036 55.494335,75.942071 66.698016,87.721036 c 6.162025,6.47843 11.225799,12.045811 11.252833,12.371954 0.02703,0.32615 -5.238349,6.07293 -11.700849,12.77062 l -11.75,12.17762 -13.083333,-0.0206 c -7.195834,-0.0113 -13.365913,-0.3032 -13.711287,-0.64857 z M 61,72.206188 C 61,71.769592 65.5,66.63435 71,60.794541 76.5,54.954731 81,49.4303 81,48.518029 81,47.605757 76.203739,41.940999 70.341642,35.929677 L 59.683283,25 73.737785,25 87.792287,25 99.558642,37.541424 111.325,50.082848 107.4255,54.291424 C 105.28078,56.606141 100.38142,61.7625 96.53803,65.75 L 89.550055,73 75.275028,73 C 67.423762,73 61,72.642785 61,72.206188 z"
       id="path2991"
       inkscape:connector-curvature="0" />
    <path
       style="fill:#3e5780"
       d="m 111.25927,147.56471 c -1.5918,-1.33942 -6.83975,-6.73361 -11.662104,-11.98709 l -8.76792,-9.5518 L 102.6266,113.51291 114.42395,101 l 14.28803,0 c 7.85841,0 14.28802,0.3762 14.28802,0.83599 0,1.42168 -18.95769,21.01581 -20.94277,21.64585 -4.07476,1.29327 -3.00302,3.53866 6.72012,14.07926 5.34746,5.79704 9.87265,10.96731 10.05598,11.48948 0.19886,0.56638 -4.71237,0.94942 -12.17327,0.94942 -11.79281,0 -12.67179,-0.13899 -15.40079,-2.43529 z M 29,123.38944 c 0,-0.33581 4.5,-5.3238 10,-11.08443 5.5,-5.76063 9.978426,-11.22338 9.952058,-12.13944 C 48.92569,99.249507 44.444116,93.775 38.993004,88 L 29.081892,77.5 42.081557,77.220692 55.081222,76.941384 65.790611,88.117496 C 71.680775,94.264357 76.5,99.635235 76.5,100.05278 c 0,0.41755 -4.88138,5.97648 -10.847511,12.3532 L 54.804979,124 41.902489,124 C 34.80612,124 29,123.72525 29,123.38944 z"
       id="path2989"
       inkscape:connector-curvature="0" />
  </g>
</svg>
