<?xml version="1.0" encoding="UTF-8" standalone="no"?>
<svg
   xmlns:dc="http://purl.org/dc/elements/1.1/"
   xmlns:cc="http://creativecommons.org/ns#"
   xmlns:rdf="http://www.w3.org/1999/02/22-rdf-syntax-ns#"
   xmlns:svg="http://www.w3.org/2000/svg"
   xmlns="http://www.w3.org/2000/svg"
   id="svg8"
   version="1.1"
   viewBox="0 0 73.943703 34.630466"
   height="34.630466mm"
   width="73.943703mm">
  <defs
     id="defs2" />
  <metadata
     id="metadata5">
    <rdf:RDF>
      <cc:Work
         rdf:about="">
        <dc:format>image/svg+xml</dc:format>
        <dc:type
           rdf:resource="http://purl.org/dc/dcmitype/StillImage" />
        <dc:title></dc:title>
      </cc:Work>
    </rdf:RDF>
  </metadata>
  <g
     transform="translate(-68.861482,-131.5181)"
     id="layer1">
    <g
       id="g18"
       transform="matrix(0.35277777,0,0,-0.35277777,62.176767,171.6822)">
      <g
         id="g20"
         transform="scale(0.1)">
        <path
           d="m 576.324,252.352 c -1.926,4.48 -4.539,8.308 -7.844,11.488 -3.3,3.172 -7.156,5.719 -11.578,7.648 -4.422,1.934 -9.129,3.274 -14.105,4.024 -4.359,0.629 -9.172,1.179 -14.461,1.668 -5.305,0.511 -10.07,1.058 -14.301,1.691 -3.988,0.629 -7.215,2.078 -9.711,4.391 -2.492,2.297 -3.734,5.636 -3.734,9.976 0,2.5 0.402,4.621 1.226,6.352 0.805,1.75 1.883,3.359 3.254,4.859 2.739,2.871 6.082,4.789 9.996,5.801 3.93,1 7.758,1.488 11.493,1.488 3.597,0 7.336,-0.629 11.207,-1.867 3.851,-1.242 6.839,-2.992 8.961,-5.23 1.613,-1.743 2.961,-3.762 4.019,-6.063 1.047,-2.316 1.645,-4.648 1.766,-7.008 h 24.648 c -0.117,5.602 -1.387,10.77 -3.824,15.489 -2.418,4.742 -5.633,8.972 -9.621,12.703 -4.481,4.25 -9.981,7.437 -16.524,9.625 -6.531,2.179 -13.355,3.269 -20.453,3.269 -7.843,0 -15.195,-1.238 -22.039,-3.734 -6.844,-2.492 -12.445,-5.91 -16.808,-10.281 -3.485,-3.481 -6.289,-7.391 -8.399,-11.762 -2.121,-4.359 -3.179,-9.149 -3.179,-14.367 0,-5.481 0.91,-10.371 2.718,-14.672 1.793,-4.289 4.227,-7.961 7.274,-11.008 3.05,-3.07 6.605,-5.523 10.656,-7.383 4.031,-1.871 8.363,-3.187 12.969,-3.929 4.359,-0.75 9.215,-1.301 14.566,-1.68 5.348,-0.371 10.281,-1 14.762,-1.871 4.109,-0.739 7.754,-2.321 10.922,-4.758 3.183,-2.422 4.765,-6.07 4.765,-10.922 0,-3.238 -0.507,-5.769 -1.492,-7.559 -1.004,-1.808 -2.242,-3.531 -3.734,-5.14 -2.5,-2.621 -5.801,-4.449 -9.91,-5.52 -4.11,-1.058 -8.469,-1.582 -13.071,-1.582 -3.855,0 -7.816,0.461 -11.847,1.41 -4.051,0.922 -7.52,2.821 -10.371,5.692 -2,1.98 -3.645,4.39 -4.946,7.18 -1.316,2.808 -1.972,5.832 -1.972,9.058 h -24.653 c 0,-6.348 1.317,-12.156 3.93,-17.449 2.613,-5.309 5.902,-9.738 9.891,-13.359 5.484,-4.969 11.683,-8.5 18.585,-10.551 6.918,-2.059 13.911,-3.09 21.008,-3.09 8.219,0 15.973,1.109 23.266,3.269 7.273,2.18 13.461,5.832 18.57,10.922 3.239,3.239 5.887,7.102 7.949,11.578 2.043,4.481 3.079,9.852 3.079,16.063 0,5.609 -0.973,10.66 -2.903,15.141 m 140.535,-54.731 -24.457,26.52 c 2.856,4.359 4.856,9.097 5.977,14.211 1.121,5.089 1.793,10.257 2.047,15.488 h 15.312 v 18.488 H 681.57 v -7.469 c 0,-2.859 -0.136,-5.789 -0.375,-8.769 -0.254,-3.11 -0.597,-6.07 -1.031,-8.879 -0.43,-2.789 -1.207,-5.262 -2.328,-7.383 l -22.981,25.031 c 3.614,2.121 6.95,4.36 9.997,6.723 3.046,2.367 5.691,4.957 7.933,7.75 2.242,2.809 3.988,5.918 5.231,9.34 1.238,3.418 1.867,7.316 1.867,11.668 0,5.238 -1,9.879 -2.988,13.93 -1.989,4.031 -4.665,7.468 -8.024,10.261 -3.363,2.809 -7.262,4.914 -11.683,6.348 -4.422,1.434 -9.055,2.152 -13.911,2.152 -4.976,0 -9.683,-0.746 -14.105,-2.242 -4.422,-1.492 -8.246,-3.711 -11.473,-6.629 -3.246,-2.93 -5.828,-6.441 -7.758,-10.551 -1.925,-4.109 -2.898,-8.789 -2.898,-14.019 0,-3.102 0.344,-5.899 1.031,-8.391 0.688,-2.5 1.645,-4.859 2.899,-7.097 1.242,-2.243 2.734,-4.454 4.484,-6.633 1.731,-2.188 3.66,-4.399 5.781,-6.641 -7.097,-4.348 -12.789,-9.457 -17.093,-15.308 -4.29,-5.84 -6.438,-12.879 -6.438,-21.098 0,-6.231 1.18,-11.832 3.555,-16.813 2.359,-4.968 5.531,-9.187 9.515,-12.609 3.993,-3.418 8.653,-6.07 14.02,-7.93 5.348,-1.871 10.949,-2.808 16.805,-2.808 6.843,0 13.476,1.117 19.886,3.359 6.41,2.238 12.297,5.738 17.645,10.461 l 9.34,-10.461 z m -60.316,94.699 c -1,-1.988 -2.316,-3.742 -3.93,-5.23 -1.613,-1.5 -3.453,-2.84 -5.511,-4.02 -2.047,-1.179 -4.079,-2.332 -6.067,-3.449 -1.375,1.367 -2.793,2.789 -4.289,4.277 -1.492,1.5 -2.84,3.102 -4.019,4.774 -1.18,1.687 -2.18,3.449 -2.989,5.316 -0.804,1.871 -1.207,3.871 -1.207,5.992 0,4.598 1.492,8.051 4.481,10.348 2.988,2.313 6.41,3.461 10.265,3.461 4.227,0 7.754,-1.238 10.547,-3.738 2.809,-2.481 4.215,-6.031 4.215,-10.641 0,-2.73 -0.508,-5.109 -1.496,-7.09 m 8.594,-69.48 c -2.871,-3.238 -6.289,-5.418 -10.282,-6.539 -3.988,-1.121 -7.96,-1.68 -11.953,-1.68 -3.109,0 -6.093,0.438 -8.964,1.301 -2.868,0.887 -5.379,2.18 -7.559,3.93 -2.184,1.75 -3.93,3.918 -5.231,6.527 -1.312,2.633 -1.957,5.601 -1.957,8.973 0,2.75 0.407,5.136 1.211,7.199 0.805,2.051 1.926,3.879 3.36,5.5 1.437,1.629 3.078,3.058 4.949,4.301 1.863,1.238 3.93,2.546 6.168,3.91 z m 169.937,82.359 c -1.988,5.231 -4.945,9.68 -8.859,13.352 -3.93,3.679 -8.817,6.551 -14.672,8.59 -5.844,2.07 -12.566,3.082 -20.172,3.082 H 739.453 V 197.809 h 23.902 v 47.441 h 28.016 c 7.606,0 14.328,1.031 20.172,3.078 5.855,2.063 10.742,4.953 14.672,8.684 3.914,3.738 6.871,8.218 8.859,13.449 2,5.23 2.989,11.019 2.989,17.371 0,6.348 -0.989,12.148 -2.989,17.367 M 808.18,272.238 c -3.735,-3.918 -9.637,-5.886 -17.735,-5.886 h -27.09 v 42.777 h 27.09 c 8.098,0 14,-1.988 17.735,-5.981 3.734,-3.988 5.601,-9.16 5.601,-15.507 0,-6.352 -1.867,-11.469 -5.601,-15.403 m 184.519,-74.429 v 72.472 h -54.906 v -19.992 h 31.57 c 0,-5.098 -0.539,-9.738 -1.582,-13.91 -1.062,-4.168 -3.406,-8.129 -7.008,-11.867 -2.242,-2.364 -5.019,-4.223 -8.308,-5.602 -3.301,-1.359 -7.141,-2.051 -11.488,-2.051 -3.872,0 -7.758,0.692 -11.668,2.051 -3.934,1.379 -7.204,3.5 -9.821,6.371 -2.238,2.36 -4.047,5.117 -5.406,8.297 -1.375,3.172 -2.437,6.5 -3.184,9.981 -0.746,3.5 -1.242,7.011 -1.492,10.57 -0.238,3.543 -0.375,6.812 -0.375,9.801 0,2.992 0.106,6.23 0.285,9.711 0.196,3.48 0.657,6.929 1.403,10.371 0.75,3.418 1.808,6.687 3.168,9.797 1.375,3.113 3.183,5.863 5.422,8.222 2.617,2.867 5.918,5.059 9.894,6.629 3.988,1.559 7.902,2.328 11.774,2.328 9.457,0 16.492,-2.668 21.093,-8.039 1.375,-1.73 2.618,-3.539 3.739,-5.398 1.117,-1.871 1.804,-4.11 2.062,-6.731 h 24.652 c -0.375,5.86 -1.691,10.918 -3.929,15.231 -2.242,4.277 -4.977,8.109 -8.219,11.469 -4.484,4.621 -10.086,8.3 -16.809,11.031 -6.722,2.73 -14.195,4.105 -22.414,4.105 -7.093,0 -14.164,-1.312 -21.183,-3.926 -7.035,-2.621 -13.117,-6.468 -18.215,-11.582 -3.613,-3.597 -6.543,-7.398 -8.785,-11.386 -2.239,-3.992 -3.973,-8.153 -5.231,-12.524 -1.238,-4.34 -2.074,-8.988 -2.508,-13.906 -0.449,-4.91 -0.66,-10.051 -0.66,-15.402 0,-5.481 0.243,-10.68 0.75,-15.602 0.493,-4.918 1.407,-9.617 2.703,-14.098 1.317,-4.492 3.047,-8.71 5.231,-12.699 2.18,-3.98 5.004,-7.769 8.5,-11.39 5.23,-5.602 11.18,-9.461 17.84,-11.582 6.648,-2.118 13.851,-3.18 21.558,-3.18 4.11,0 7.981,0.543 11.582,1.601 3.614,1.051 6.887,2.391 9.817,4 2.914,1.629 5.379,3.469 7.367,5.52 2,2.059 3.492,4.012 4.48,5.879 l 2.809,-14.57 z m 62.571,19.8 c -0.62,0 -1.19,-0.031 -1.69,-0.089 -0.49,-0.071 -1.23,-0.098 -2.24,-0.098 -3.99,0 -6.53,0.848 -7.65,2.519 -1.12,1.688 -1.68,3.957 -1.68,6.821 v 106.074 h -23.54 V 222.84 c 0,-9.219 2.44,-15.879 7.3,-19.988 4.85,-4.114 11.26,-6.161 19.22,-6.161 2.36,0 4.08,0.09 5.14,0.289 1.06,0.18 2.77,0.52 5.14,1.008 z m 100.29,49.403 c -1.99,5.539 -4.8,10.617 -8.4,15.218 -3.36,4.11 -8.01,7.649 -13.92,10.641 -5.91,2.988 -12.6,4.481 -20.07,4.481 -7.47,0 -14.16,-1.493 -20.08,-4.481 -5.92,-2.992 -10.55,-6.531 -13.91,-10.641 -3.62,-4.601 -6.43,-9.679 -8.41,-15.218 -1.99,-5.551 -2.99,-12.422 -2.99,-20.641 0,-8.211 1,-15.101 2.99,-20.633 1.98,-5.539 4.79,-10.617 8.41,-15.226 3.36,-4.102 7.99,-7.66 13.91,-10.653 5.92,-2.988 12.61,-4.48 20.08,-4.48 7.47,0 14.16,1.492 20.07,4.48 5.91,2.993 10.56,6.551 13.92,10.653 3.6,4.609 6.41,9.687 8.4,15.226 1.98,5.532 2.98,12.422 2.98,20.633 0,8.219 -1,15.09 -2.98,20.641 m -22.04,-33.992 c -0.87,-4.29 -2.73,-8 -5.6,-11.122 -1.62,-1.726 -3.68,-3.199 -6.16,-4.378 -2.5,-1.192 -5.36,-1.782 -8.59,-1.782 -3.24,0 -6.11,0.59 -8.59,1.782 -2.5,1.179 -4.56,2.652 -6.17,4.378 -2.87,3.122 -4.74,6.832 -5.61,11.122 -0.86,4.3 -1.29,8.75 -1.29,13.351 0,4.609 0.43,9.059 1.29,13.359 0.87,4.29 2.74,7.989 5.61,11.098 1.61,1.75 3.67,3.211 6.17,4.391 2.48,1.179 5.35,1.781 8.59,1.781 3.23,0 6.09,-0.602 8.59,-1.781 2.48,-1.18 4.54,-2.641 6.16,-4.391 2.87,-3.109 4.73,-6.808 5.6,-11.098 0.87,-4.3 1.31,-8.75 1.31,-13.359 0,-4.601 -0.44,-9.051 -1.31,-13.351 m 119.9,56.492 c -2.99,2.488 -6.44,4.418 -10.37,5.797 -3.91,1.371 -8.37,2.043 -13.34,2.043 -5.86,0 -11,-0.903 -15.42,-2.704 -4.42,-1.808 -7.74,-4.078 -9.98,-6.816 v 44.824 h -23.35 V 197.809 h 20.17 l 1.49,10.64 c 2.87,-4.48 6.78,-7.738 11.77,-9.801 4.98,-2.046 10.15,-3.078 15.5,-3.078 4.85,0 9.25,0.75 13.16,2.239 3.93,1.5 7.38,3.492 10.37,5.98 5.86,4.742 10.2,10.672 13.07,17.84 2.87,7.16 4.31,15.351 4.31,24.551 0,19.3 -5.8,33.75 -17.38,43.332 m -7.56,-55.551 c -0.81,-4.191 -2.47,-7.883 -4.95,-11.121 -1.74,-2.121 -3.9,-3.93 -6.45,-5.418 -2.55,-1.5 -5.63,-2.242 -9.23,-2.242 -2.99,0 -5.61,0.441 -7.85,1.308 -2.24,0.871 -4.18,2.051 -5.8,3.543 -3.36,3.129 -5.6,7.129 -6.72,12.059 -1.12,4.922 -1.67,9.742 -1.67,14.461 0,3.5 0.27,7.07 0.84,10.738 0.55,3.68 1.64,7.043 3.27,10.09 1.61,3.051 3.85,5.543 6.72,7.473 2.85,1.929 6.59,2.898 11.21,2.898 3.6,0 6.68,-0.75 9.23,-2.238 2.55,-1.5 4.71,-3.301 6.45,-5.422 2.48,-3.231 4.14,-6.91 4.95,-11.02 0.81,-4.109 1.21,-8.269 1.21,-12.519 0,-4.231 -0.4,-8.422 -1.21,-12.59 m 131.94,-17.84 c -0.25,-0.121 -0.55,-0.199 -0.92,-0.199 -0.38,-0.121 -1.06,-0.184 -2.06,-0.184 -1.99,0 -3.4,0.473 -4.2,1.41 -0.81,0.922 -1.21,2.512 -1.21,4.75 v 36.051 c 0,3.25 -0.17,6.531 -0.48,9.891 -0.32,3.371 -1.09,6.609 -2.33,9.711 -2.87,7.359 -7.56,12.5 -14.11,15.418 -6.53,2.922 -13.97,4.383 -22.3,4.383 -5.49,0 -10.6,-0.614 -15.32,-1.872 -4.73,-1.242 -8.9,-3.128 -12.52,-5.691 -3.61,-2.551 -6.5,-5.809 -8.68,-9.801 -2.18,-3.988 -3.45,-8.707 -3.82,-14.187 h 22.59 c 0.25,4.48 1.89,7.898 4.94,10.258 3.05,2.382 7.32,3.562 12.81,3.562 6.59,0 10.98,-1.41 13.16,-4.199 2.18,-2.813 3.27,-6.524 3.27,-11.121 v -5.973 l -28.58,-2.066 c -4.6,-0.371 -8.91,-1.274 -12.88,-2.703 -3.99,-1.438 -7.47,-3.45 -10.46,-6.071 -2.99,-2.609 -5.33,-5.718 -7,-9.328 -1.69,-3.621 -2.53,-7.73 -2.53,-12.332 0,-3.988 0.75,-7.808 2.24,-11.488 1.49,-3.68 3.71,-6.899 6.64,-9.711 2.92,-2.797 6.55,-5.039 10.92,-6.719 4.36,-1.68 9.45,-2.531 15.31,-2.531 6.98,0 13.07,1.43 18.3,4.301 5.23,2.871 8.97,6.289 11.21,10.269 0.37,-3.597 1.93,-6.789 4.68,-9.519 2.73,-2.731 6.64,-4.11 11.75,-4.11 2.87,0 5.01,0.219 6.44,0.66 1.44,0.43 3.16,1.09 5.14,1.95 z m -31.18,20.359 c 0,-7.23 -2.31,-12.742 -6.92,-16.539 -4.6,-3.793 -10.57,-5.691 -17.93,-5.691 -3.61,0 -6.81,1.09 -9.62,3.27 -2.79,2.171 -4.2,5.128 -4.2,8.859 0,3.992 1.44,7.043 4.31,9.16 2.85,2.121 6.09,3.301 9.71,3.543 l 24.65,1.867 z m 87.78,-18.871 c -0.63,0 -1.2,-0.031 -1.69,-0.089 -0.49,-0.071 -1.24,-0.098 -2.24,-0.098 -3.99,0 -6.53,0.848 -7.65,2.519 -1.12,1.688 -1.69,3.957 -1.69,6.821 V 332.836 H 1397.6 V 222.84 c 0,-9.219 2.44,-15.879 7.29,-19.988 4.86,-4.114 11.27,-6.161 19.23,-6.161 2.36,0 4.08,0.09 5.14,0.289 1.05,0.18 2.76,0.52 5.14,1.008 v 19.621"
           style="fill:#ed192e;fill-opacity:1;fill-rule:nonzero;stroke:none"
           id="path22" />
        <path
           d="M 317.961,197.809 271.453,330.238 H 245.125 L 198.613,197.809 h 24.282 l 8.589,25.402 h 52.684 l 8.59,-25.402 z m -41.266,47.07 h -37.742 l 18.871,55.832 z m 138.563,-47.07 v 64.82 c 0,4.98 -0.746,9.609 -2.242,13.91 -1.493,4.289 -3.629,7.961 -6.438,11.012 -2.793,3.051 -6.23,5.461 -10.265,7.199 -4.047,1.738 -8.696,2.621 -13.922,2.621 -5.606,0 -11.043,-1.23 -16.332,-3.652 -5.305,-2.438 -9.383,-6.199 -12.239,-11.289 l -1.687,12.5 h -19.602 v -97.121 h 23.336 v 39.601 c 0,4.11 0.137,8.559 0.375,13.36 0.254,4.781 1.18,8.992 2.809,12.589 1.613,3.621 3.793,6.571 6.527,8.879 2.75,2.301 6.172,3.461 10.281,3.461 6.231,0 10.457,-1.629 12.7,-4.871 2.242,-3.219 3.363,-7.707 3.363,-13.43 V 197.809 Z M 1557.36,240.18 c -0.5,-5.489 -2.5,-10.36 -5.99,-14.61 -2.12,-2.738 -4.96,-4.832 -8.52,-6.261 -3.56,-1.438 -7.4,-2.161 -11.52,-2.161 -3.87,0 -7.58,0.75 -11.14,2.25 -3.56,1.493 -6.64,3.684 -9.27,6.551 -2.24,2.371 -3.99,5.121 -5.24,8.242 -1.25,3.118 -2.15,6.391 -2.71,9.829 -0.56,3.429 -0.91,6.89 -1.03,10.39 -0.13,3.5 -0.19,6.738 -0.19,9.738 0,3 0.06,6.243 0.19,9.743 0.12,3.488 0.47,6.949 1.03,10.39 0.56,3.43 1.46,6.707 2.71,9.828 1.25,3.121 3,5.86 5.24,8.243 2.63,2.867 5.71,5.046 9.27,6.546 3.56,1.5 7.27,2.25 11.14,2.25 4.12,0 7.96,-0.687 11.52,-2.058 3.56,-1.379 6.4,-3.442 8.52,-6.18 1.74,-2.129 3.12,-4.281 4.12,-6.461 0.99,-2.187 1.62,-4.719 1.87,-7.578 h 24.72 c -0.63,5.238 -1.94,10.359 -3.94,15.348 -1.99,4.992 -4.93,9.48 -8.8,13.48 -4.99,5.121 -10.79,8.961 -17.41,11.512 -6.62,2.562 -13.48,3.844 -20.6,3.844 -7.11,0 -13.88,-1.219 -20.31,-3.653 -6.43,-2.433 -12.2,-6.211 -17.32,-11.332 -3.62,-3.621 -6.53,-7.422 -8.71,-11.422 -2.18,-3.988 -3.84,-8.238 -4.96,-12.726 -1.13,-4.492 -1.87,-9.242 -2.25,-14.231 -0.37,-4.992 -0.56,-10.179 -0.56,-15.543 0,-5.5 0.19,-10.707 0.56,-15.636 0.38,-4.934 1.12,-9.641 2.25,-14.133 1.12,-4.5 2.78,-8.738 4.96,-12.731 2.18,-4 5.09,-7.808 8.71,-11.429 5.12,-5.117 10.89,-8.86 17.32,-11.231 6.43,-2.367 13.2,-3.558 20.31,-3.558 7.12,0 13.98,1.34 20.6,4.031 6.62,2.68 12.42,6.578 17.41,11.699 3.87,3.988 6.81,8.52 8.8,13.57 2,5.059 3.31,10.211 3.94,15.45 z m 127.61,27.058 c -2,5.551 -4.81,10.641 -8.43,15.262 -3.37,4.121 -8.02,7.68 -13.95,10.672 -5.93,3 -12.64,4.488 -20.13,4.488 -7.49,0 -14.2,-1.488 -20.13,-4.488 -5.93,-2.992 -10.58,-6.551 -13.95,-10.672 -3.62,-4.621 -6.43,-9.711 -8.42,-15.262 -2,-5.558 -3,-12.449 -3,-20.687 0,-8.242 1,-15.141 3,-20.692 1.99,-5.558 4.8,-10.648 8.42,-15.269 3.37,-4.11 8.02,-7.668 13.95,-10.668 5.93,-2.992 12.64,-4.492 20.13,-4.492 7.49,0 14.2,1.5 20.13,4.492 5.93,3 10.58,6.558 13.95,10.668 3.62,4.621 6.43,9.711 8.43,15.269 1.99,5.551 2.99,12.45 2.99,20.692 0,8.238 -1,15.129 -2.99,20.687 m -22.1,-34.078 c -0.87,-4.308 -2.75,-8.019 -5.62,-11.14 -1.62,-1.75 -3.68,-3.219 -6.17,-4.399 -2.5,-1.191 -5.37,-1.781 -8.62,-1.781 -3.25,0 -6.12,0.59 -8.61,1.781 -2.5,1.18 -4.56,2.649 -6.18,4.399 -2.87,3.121 -4.75,6.832 -5.62,11.14 -0.87,4.309 -1.31,8.77 -1.31,13.391 0,4.609 0.44,9.078 1.31,13.379 0.87,4.308 2.75,8.019 5.62,11.148 1.62,1.742 3.68,3.211 6.18,4.402 2.49,1.18 5.36,1.782 8.61,1.782 3.25,0 6.12,-0.602 8.62,-1.782 2.49,-1.191 4.55,-2.66 6.17,-4.402 2.87,-3.129 4.75,-6.84 5.62,-11.148 0.87,-4.301 1.31,-8.77 1.31,-13.379 0,-4.621 -0.44,-9.082 -1.31,-13.391 m 185.05,-35.301 v 65.731 c 0,10.109 -2.65,18.32 -7.95,24.621 -5.31,6.301 -13.21,9.449 -23.69,9.449 -6.62,0 -12.45,-1.371 -17.51,-4.109 -5.05,-2.75 -9.02,-6.68 -11.89,-11.801 -2.5,4.988 -6.05,8.891 -10.67,11.699 -4.62,2.813 -10.36,4.211 -17.23,4.211 -6.49,0 -12.05,-1.43 -16.66,-4.301 -4.62,-2.871 -8.3,-6.55 -11.05,-11.05 l -1.87,12.921 h -19.47 v -97.371 h 23.21 v 53.18 c 0,3 0.38,6.063 1.13,9.18 0.75,3.121 1.93,5.961 3.55,8.519 1.62,2.551 3.62,4.614 6,6.172 2.36,1.57 5.24,2.352 8.61,2.352 5.86,0 9.83,-1.66 11.89,-4.973 2.06,-3.309 3.09,-7.957 3.09,-13.949 v -60.481 h 23.22 v 53.18 c 0,3 0.37,6.063 1.12,9.18 0.75,3.121 1.9,5.961 3.46,8.519 1.57,2.551 3.53,4.614 5.9,6.172 2.37,1.57 5.24,2.352 8.61,2.352 5.87,0 9.84,-1.66 11.9,-4.973 2.06,-3.309 3.08,-7.957 3.08,-13.949 v -60.481 z m 112.37,73.5 c -2.88,7.172 -7.24,13.129 -13.11,17.879 -2.99,2.492 -6.46,4.492 -10.39,5.992 -3.93,1.5 -8.33,2.25 -13.2,2.25 -5.37,0 -10.55,-1.031 -15.54,-3.089 -5,-2.063 -8.93,-5.34 -11.8,-9.832 l -1.5,10.671 h -20.22 V 160.602 h 23.4 v 44.378 c 2.25,-2.75 5.59,-5.031 10.02,-6.839 4.43,-1.801 9.58,-2.711 15.45,-2.711 4.99,0 9.46,0.691 13.39,2.058 3.93,1.371 7.4,3.313 10.39,5.813 5.87,4.738 10.23,10.758 13.11,18.058 2.87,7.313 4.31,15.762 4.31,25.379 0,9.231 -1.44,17.442 -4.31,24.621 m -20.69,-37.55 c -0.81,-4.11 -2.47,-7.797 -4.96,-11.039 -1.75,-2.122 -3.91,-3.93 -6.46,-5.43 -2.56,-1.5 -5.65,-2.25 -9.27,-2.25 -4.62,0 -8.37,0.969 -11.24,2.898 -2.87,1.942 -5.12,4.434 -6.74,7.492 -1.62,3.059 -2.71,6.43 -3.27,10.11 -0.57,3.68 -0.85,7.269 -0.85,10.769 0,3.493 0.28,7.121 0.85,10.86 0.56,3.75 1.65,7.14 3.27,10.211 1.62,3.05 3.87,5.55 6.74,7.48 2.87,1.942 6.62,2.91 11.24,2.91 3.62,0 6.71,-0.75 9.27,-2.25 2.55,-1.5 4.71,-3.308 6.46,-5.429 2.49,-3.25 4.15,-6.961 4.96,-11.141 0.81,-4.18 1.22,-8.398 1.22,-12.641 0,-4.238 -0.41,-8.429 -1.22,-12.55 m 132.87,-17.598 c -0.26,-0.121 -0.57,-0.18 -0.94,-0.18 -0.37,-0.133 -1.06,-0.191 -2.06,-0.191 -2,0 -3.4,0.469 -4.21,1.398 -0.82,0.942 -1.22,2.532 -1.22,4.782 v 36.14 c 0,3.238 -0.16,6.551 -0.47,9.922 -0.31,3.367 -1.09,6.617 -2.34,9.738 -2.87,7.36 -7.58,12.512 -14.14,15.45 -6.55,2.929 -14.01,4.39 -22.37,4.39 -5.49,0 -10.61,-0.621 -15.36,-1.871 -4.74,-1.238 -8.92,-3.148 -12.54,-5.711 -3.62,-2.558 -6.52,-5.828 -8.71,-9.828 -2.18,-3.988 -3.46,-8.738 -3.84,-14.23 h 22.66 c 0.25,4.5 1.9,7.929 4.96,10.3 3.06,2.371 7.34,3.559 12.83,3.559 6.61,0 11.01,-1.41 13.2,-4.219 2.18,-2.801 3.28,-6.519 3.28,-11.14 v -5.989 l -28.65,-2.062 c -4.62,-0.367 -8.93,-1.278 -12.92,-2.707 -4,-1.442 -7.49,-3.473 -10.49,-6.09 -2.99,-2.621 -5.33,-5.742 -7.02,-9.363 -1.68,-3.618 -2.53,-7.739 -2.53,-12.36 0,-4 0.75,-7.828 2.25,-11.508 1.5,-3.691 3.71,-6.929 6.65,-9.742 2.93,-2.808 6.58,-5.058 10.95,-6.738 4.37,-1.691 9.49,-2.531 15.36,-2.531 6.98,0 13.1,1.429 18.34,4.308 5.25,2.871 8.99,6.301 11.24,10.301 0.37,-3.629 1.93,-6.809 4.68,-9.559 2.74,-2.742 6.68,-4.109 11.8,-4.109 2.87,0 5.02,0.219 6.46,0.649 1.43,0.441 3.15,1.089 5.15,1.968 z m -31.27,20.41 c 0,-7.242 -2.31,-12.762 -6.93,-16.57 -4.62,-3.813 -10.61,-5.711 -17.98,-5.711 -3.62,0 -6.83,1.09 -9.64,3.281 -2.81,2.18 -4.21,5.149 -4.21,8.891 0,4 1.43,7.047 4.3,9.179 2.87,2.118 6.12,3.297 9.74,3.547 l 24.72,1.883 z m 134.23,-38.762 v 64.981 c 0,4.992 -0.75,9.64 -2.24,13.949 -1.5,4.301 -3.66,7.981 -6.46,11.051 -2.81,3.051 -6.25,5.461 -10.3,7.199 -4.06,1.75 -8.71,2.621 -13.95,2.621 -5.62,0 -11.08,-1.211 -16.39,-3.648 -5.3,-2.43 -9.39,-6.211 -12.26,-11.332 l -1.69,12.55 h -19.66 v -97.371 h 23.41 v 39.7 c 0,4.121 0.12,8.582 0.37,13.39 0.25,4.801 1.19,9.012 2.81,12.641 1.62,3.621 3.81,6.582 6.56,8.89 2.74,2.309 6.17,3.469 10.29,3.469 6.24,0 10.49,-1.629 12.74,-4.871 2.24,-3.246 3.37,-7.738 3.37,-13.476 v -59.743 z m 110.1,97.371 h -23.78 l -24.34,-70.402 -25.47,70.402 h -25.65 l 38.38,-97.179 -5.61,-13.672 c -1.25,-2.867 -2.9,-4.801 -4.96,-5.801 -2.06,-1 -4.16,-1.5 -6.28,-1.5 -1.37,0 -2.53,0.031 -3.46,0.094 -0.94,0.066 -1.87,0.156 -2.81,0.277 -0.94,0.129 -1.94,0.321 -3,0.571 -1.06,0.25 -2.34,0.492 -3.83,0.742 v -19.473 c 2.49,-0.617 5.15,-1.18 7.95,-1.68 2.81,-0.5 6.15,-0.75 10.02,-0.75 4.24,0 7.96,0.653 11.14,1.961 3.19,1.309 5.96,3.09 8.34,5.34 2.37,2.25 4.4,4.84 6.08,7.77 1.69,2.941 3.15,6.019 4.4,9.269 l 42.88,114.031"
           style="fill:#231f20;fill-opacity:1;fill-rule:nonzero;stroke:none"
           id="path24" />
        <path
           d="M 198.617,455.734 V 409.523 H 2285.52 v 46.211 H 198.617"
           style="fill:#231f20;fill-opacity:1;fill-rule:nonzero;stroke:none"
           id="path26" />
        <path
           d="m 476.461,805.945 c -1.789,-19.675 -8.945,-37.105 -21.453,-52.3 -7.61,-9.836 -17.77,-17.325 -30.512,-22.457 -12.738,-5.145 -26.48,-7.711 -41.234,-7.711 -13.86,0 -27.153,2.679 -39.895,8.043 -12.738,5.363 -23.801,13.179 -33.187,23.468 -8.047,8.485 -14.313,18.325 -18.778,29.5 -4.468,11.172 -7.711,22.907 -9.718,35.203 -2.012,12.289 -3.25,24.692 -3.688,37.211 -0.453,12.508 -0.672,24.141 -0.672,34.868 0,10.726 0.219,22.343 0.672,34.867 0.438,12.508 1.676,24.91 3.688,37.211 2.007,12.289 5.25,24.023 9.718,35.199 4.465,11.173 10.731,21.003 18.778,29.503 9.386,10.28 20.449,18.1 33.187,23.47 12.742,5.36 26.035,8.04 39.895,8.04 14.754,0 28.496,-2.46 41.234,-7.37 12.742,-4.92 22.902,-12.3 30.512,-22.13 6.254,-7.61 11.168,-15.31 14.75,-23.13 3.57,-7.825 5.801,-16.875 6.703,-27.157 h 88.508 c -2.246,18.774 -6.938,37.097 -14.082,54.987 -7.157,17.87 -17.664,33.96 -31.512,48.27 -17.887,18.33 -38.672,32.07 -62.359,41.24 -23.696,9.15 -48.274,13.74 -73.754,13.74 -25.481,0 -49.731,-4.36 -72.746,-13.07 -23.032,-8.72 -43.7,-22.24 -62.024,-40.57 -12.969,-12.97 -23.363,-26.6 -31.179,-40.9 -7.825,-14.31 -13.743,-29.5 -17.766,-45.591 -4.024,-16.094 -6.703,-33.086 -8.047,-50.957 -1.34,-17.887 -2.012,-36.442 -2.012,-55.652 0,-19.676 0.672,-38.336 2.012,-55.989 1.344,-17.664 4.023,-34.527 8.047,-50.621 4.023,-16.09 9.941,-31.293 17.766,-45.594 7.816,-14.308 18.21,-27.941 31.179,-40.898 18.324,-18.336 38.992,-31.746 62.024,-40.23 23.015,-8.489 47.265,-12.743 72.746,-12.743 25.48,0 50.058,4.809 73.754,14.418 23.687,9.61 44.472,23.575 62.359,41.907 13.848,14.3 24.355,30.507 31.512,48.609 7.144,18.105 11.836,36.543 14.082,55.316 z M 1021.29,654.414 934.125,848.855 c 26.367,9.829 47.488,26.485 63.359,49.954 15.866,23.468 23.806,51.293 23.806,83.476 0,19.215 -3.25,37.655 -9.72,55.315 -6.49,17.65 -16.547,33.3 -30.175,46.94 -13.641,13.63 -30.844,24.57 -51.629,32.85 -20.786,8.27 -45.258,12.4 -73.418,12.4 H 655.867 V 654.414 h 87.164 v 179.691 h 105.27 L 927.422,654.414 Z M 914.68,929.984 C 901.27,917.918 882.266,911.883 857.688,911.883 H 742.363 v 142.147 h 113.985 c 12.07,0 23.015,-1.9 32.855,-5.7 9.824,-3.8 18.102,-9.05 24.805,-15.76 6.707,-6.7 11.84,-14.41 15.426,-23.13 3.57,-8.71 5.363,-17.764 5.363,-27.155 0,-22.797 -6.707,-40.226 -20.117,-52.301 m 289.66,199.806 h -87.83 V 654.414 h 87.83 z m 460.38,-279.591 c -6.94,16.09 -16.33,29.836 -28.16,41.235 -11.85,11.398 -25.71,20.554 -41.58,27.488 -15.87,6.926 -32.74,11.734 -50.62,14.418 -15.65,2.23 -32.97,4.242 -51.96,6.035 -19.01,1.781 -36.1,3.793 -51.29,6.035 -14.31,2.231 -25.93,7.481 -34.87,15.754 -8.95,8.266 -13.41,20.223 -13.41,35.871 0,8.935 1.45,16.535 4.36,22.795 2.9,6.26 6.81,12.07 11.73,17.44 9.83,10.27 21.79,17.2 35.87,20.78 14.09,3.58 27.83,5.36 41.24,5.36 12.96,0 26.37,-2.23 40.23,-6.7 13.85,-4.47 24.58,-10.73 32.18,-18.77 5.81,-6.27 10.62,-13.53 14.42,-21.8 3.79,-8.27 5.92,-16.652 6.37,-25.136 h 88.5 c -0.45,20.116 -5.03,38.656 -13.74,55.646 -8.72,16.99 -20.23,32.19 -34.53,45.6 -16.1,15.19 -35.87,26.7 -59.34,34.53 -23.47,7.81 -47.94,11.73 -73.42,11.73 -28.16,0 -54.54,-4.47 -79.12,-13.41 -24.59,-8.95 -44.7,-21.23 -60.34,-36.88 -12.52,-12.52 -22.58,-26.59 -30.17,-42.24 -7.61,-15.65 -11.4,-32.85 -11.4,-51.625 0,-19.671 3.23,-37.21 9.72,-52.636 6.47,-15.418 15.19,-28.61 26.15,-39.559 10.94,-10.957 23.68,-19.777 38.22,-26.48 14.52,-6.707 30.05,-11.403 46.6,-14.082 15.64,-2.68 33.07,-4.696 52.29,-6.035 19.22,-1.34 36.88,-3.583 52.97,-6.708 14.75,-2.679 27.83,-8.378 39.23,-17.097 11.4,-8.715 17.09,-21.789 17.09,-39.223 0,-11.629 -1.79,-20.68 -5.36,-27.156 -3.58,-6.481 -8.05,-12.633 -13.41,-18.438 -8.95,-9.386 -20.78,-15.988 -35.53,-19.781 -14.76,-3.801 -30.41,-5.695 -46.94,-5.695 -13.86,0 -28.06,1.676 -42.58,5.027 -14.53,3.352 -26.93,10.16 -37.21,20.449 -7.15,7.149 -13.07,15.754 -17.77,25.817 -4.69,10.058 -7.04,20.89 -7.04,32.515 h -88.5 c 0,-22.796 4.69,-43.695 14.08,-62.691 9.39,-19.004 21.22,-34.977 35.53,-47.937 19.67,-17.883 41.91,-30.508 66.72,-37.883 24.81,-7.375 49.95,-11.067 75.43,-11.067 29.5,0 57.33,3.918 83.48,11.735 26.14,7.816 48.38,20.89 66.71,39.226 11.62,11.617 21.12,25.477 28.49,41.571 7.38,16.089 11.07,35.304 11.07,57.66 0,20.117 -3.47,38.218 -10.39,54.312 m 193.71,279.591 H 1770.6 V 654.414 h 87.83 z m 426.9,-475.376 v 81.801 h -220.59 v 393.575 h -86.5 V 654.414 h 307.09"
           style="fill:#ed192e;fill-opacity:1;fill-rule:nonzero;stroke:none"
           id="path28" />
      </g>
    </g>
  </g>
</svg>
