<?xml version="1.0" encoding="UTF-8" standalone="no"?>
<!-- Created with Inkscape (http://www.inkscape.org/) -->
<svg id="svg2" xmlns:rdf="http://www.w3.org/1999/02/22-rdf-syntax-ns#" xmlns="http://www.w3.org/2000/svg" height="124.86" width="261.75" version="1.1" xmlns:cc="http://creativecommons.org/ns#" xmlns:dc="http://purl.org/dc/elements/1.1/">
 <metadata id="metadata8">
  <rdf:RDF>
   <cc:Work rdf:about="">
    <dc:format>image/svg+xml</dc:format>
    <dc:type rdf:resource="http://purl.org/dc/dcmitype/StillImage"/>
    <dc:title/>
   </cc:Work>
  </rdf:RDF>
 </metadata>
 <g id="g3009" transform="translate(-18.999961,-88.10076)">
  <path id="path3013" fill="#ec1c2f" d="m270,211.5c0-0.825,0.675-1.5,1.5-1.5,2.0432,0,1.8832-2.9538-0.48541-8.963-1.68-4.29-1.75-5.04-0.47-5.04,0.83059,0,1.9624,1.2375,2.5151,2.75,0.55271,1.5125,1.269,3.425,1.5917,4.25,0.38203,0.97665,1.0986,0.0172,2.0537-2.75,0.8624-2.4986,2.0948-4.25,2.9906-4.25,1.0485,0,1.3075,0.54577,0.83054,1.75-0.38122,0.9625-1.6142,4.225-2.74,7.25s-2.4921,6.0625-3.0363,6.75c-1.38,1.74-4.74,1.57-4.74-0.25zm-40-7.5c0-5.726,0.3553-8.0039,1.25-8.0136,0.6875-0.008,2.2209-0.27412,3.4076-0.59246,2.8834-0.77352,6.3424,2.7448,6.3424,6.4511,0,3.29-2.71,6.15-5.83,6.15-1.5,0-2.17,0.61-2.17,2,0,1.1111-0.66667,2-1.5,2-1.2083,0-1.5-1.5556-1.5-8zm6.9543,0.55504c1.6379-1.9735,0.9243-5.9625-1.1368-6.3552-2.2515-0.42894-3.8006,2.7188-2.7315,5.5501,0.98235,2.6015,2.172,2.8491,3.8684,0.80504zm-217.89,2.19c0.03458-0.6875,1.292-4.3977,2.7942-8.2448,3.7654-9.6431,5.2782-9.6087,8.5428,0.19418,3.041,9.13,3.061,9.3,1.1,9.3-0.825,0-1.5-0.675-1.5-1.5,0-1.0833-1.1111-1.5-4-1.5s-4,0.41667-4,1.5c0,0.825-0.675,1.5-1.5,1.5s-1.4717-0.5625-1.4371-1.25zm8.4642-7.498c-1.1341-4.5186-1.8219-4.5191-2.9055-0.002-0.56256,2.345-0.3464,2.75,1.4677,2.75,1.8211,0,2.0282-0.39566,1.4378-2.748zm8.1395,8.0813c-0.366-0.36-0.666-3.06-0.666-6,0-4.4075,0.30379-5.3357,1.75-5.347,0.9625-0.008,2.6954-0.26746,3.8509-0.57765,3.4266-0.91986,5.5476,2.0928,5.1989,7.3844-0.409,6.22-2.8,6.94-2.8,0.86,0-2.49-0.47-4.81-1.044-5.17-1.924-1.19-3.956,1.72-3.956,5.65,0,3.6445-0.79952,4.7447-2.3333,3.2109zm18.89-1.2703c-2.6164-2.8911-0.96502-4.5291,2.1197-2.1026,1.9782,1.556,2.9673,1.7653,4.4909,0.94989,2.7425-1.4678,1.7848-3.2358-2.1935-4.0494-3.095-0.63-5.974-3.07-5.974-5.05,0-0.45,0.9-1.71,2-2.81,2.5697-2.5696,7.1772-2.5667,9.5055,0.006,2.2996,2.541,1.2253,3.723-1.8756,2.0634-2.5032-1.3397-5.6023-1.1718-5.9328,0.32147-0.22571,1.02,1.5042,1.992,5.8028,3.2605,3.5363,1.0436,4.5835,5.1221,1.9829,7.7228-2.2509,2.251-7.7635,2.0781-9.9258-0.31127zm15.591,0.68546c-1.4146-1.4146-1.5142-6.4044-0.1448-7.2507,0.55202-0.34116,0.72677-1.7236,0.38833-3.072-0.747-2.99,1.068-5.43,4.032-5.43,4.1766,0,6.1297,4.4669,3.0652,7.0102-1.1986,0.99473-1.2618,1.557-0.30459,2.7104,1.0333,1.245,1.3193,1.1536,1.9801-0.63268,0.886-2.39,3.838-2.85,3.838-0.59,0,0.825-0.45,1.5-1,1.5-1.2912,0-1.3014,4.2986-0.01334,5.5867,0.64888,0.64887-1.012,1.042-4.8515,1.1485-3.2807,0.0909-6.3413-0.34128-6.9867-0.98666zm6.2689-1.6148c0.29449-0.4765-0.36459-1.6809-1.4646-2.6764-2.5232-2.2835-5.1074-0.55347-2.988,2.0003,1.4069,1.6952,3.6155,2.0305,4.4526,0.67603zm-0.86355-9.2208c0.36954-0.59793,0.15236-1.6067-0.48262-2.2416-0.87268-0.87268-1.3723-0.80204-2.0469,0.28938-0.951,1.53-0.47,3.03,0.978,3.03,0.48508,0,1.1843-0.48921,1.5539-1.0871zm10.658,3.83,0.29-8.25,4.195-0.3c4.423-0.33,8.305,2.15,8.305,5.3,0,2.5059-3.8106,5.5-7,5.5-2.6667,0-3,0.33333-3,3,0,2.035-0.49551,3-1.5404,3-1.2862,0-1.4925-1.3614-1.25-8.25zm9.0598-2c0.811-2.33-0.471-3.75-3.377-3.75-2.419,0-2.893,0.41-2.893,2.5,0,2.0952,0.47222,2.5,2.9167,2.5,1.6042,0,3.1129-0.5625,3.3527-1.25zm11.739,8.2588c-2.77-2.77-2.78-10.24-0.01-13.01,2.5696-2.5696,7.1772-2.5667,9.5056,0.006,2.3599,2.6076,1.1962,3.7074-2.0722,1.9582-4.523-2.4206-7.5451,1.4701-5.9814,7.7004,0.4949,1.9718,1.156,2.3991,3.3243,2.1483,3.32-0.39,4.48-3.82,1.29-3.82-1.14,0-2.07-0.45-2.07-1s1.575-1,3.5-1c3.4518,0,3.4999,0.0586,3.4951,4.25l-0.005,4.25-4.4863,0.2588c-3.3946,0.19582-4.9751-0.23001-6.4951-1.75zm15.624,1.2066c-1.1108-1.7973-0.93746-15.614,0.20065-15.993,0.81516-0.27172,1.1662,1.7436,1.1662,6.6946,0,4.0556,0.42745,7.0833,1,7.0833,0.55,0,1,0.675,1,1.5,0,1.557-2.5163,2.0917-3.3669,0.71535zm7.0219-1.0441c-2.4269-2.6816-2.1291-7.7258,0.56752-9.6146,1.2224-0.85618,2.7974-1.5567,3.5-1.5567,2.2595,0,5.2775,3.9144,5.2775,6.845,0,5.3162-5.9544,8.0728-9.345,4.3262zm6.1488-4.5489c-0.23-2.36-0.79-3.13-2.3-3.13-1.4628,0-2.0887,0.77669-2.3301,2.8915-0.34908,3.058,1.22,4.7799,3.5432,3.8883,0.88206-0.33848,1.2829-1.6825,1.0907-3.6575zm6.2-2.25c0-6.78,0.29-8.38,1.5-8.38,0.94975,0,1.5,0.95633,1.5,2.607,0,2.006,0.37829,2.4618,1.6409,1.9773,2.839-1.0894,6.361,2.0688,6.3438,5.6888-0.0232,4.8881-1.3241,6.1699-6.4365,6.342l-4.54,0.15v-8.3841zm7.8038,2.2383c-0.23-2.35-0.79-3.12-2.3-3.12-1.4628,0-2.0887,0.77669-2.3301,2.8915-0.34908,3.058,1.22,4.7799,3.5432,3.8883,0.88206-0.33848,1.2829-1.6825,1.0907-3.6575zm6.239,4.9292c-2.1046-2.5358-0.77057-4.9236,3.4053-6.0952,4.2466-1.1915,3.3983-2.9579-0.90212-1.8785-3.2796,0.82312-3.4104-1.2268-0.17248-2.7021,3.2702-1.49,6.2812,0.27587,7.1404,4.1875,0.37204,1.6939,0.41252,3.3437,0.09,3.6663-0.32257,0.32256-0.0853,1.1904,0.52728,1.9285,0.61257,0.73811,0.94617,1.3873,0.74132,1.4427-3.5803,0.96832-9.8334,0.65126-10.83-0.54913zm5.826-1.8936c1.4243-1.7162,0.56022-2.583-1.9268-1.9326-1.9975,0.52236-2.4453,1.4381-1.2754,2.6079,1.0101,1.0101,1.9717,0.80733,3.2022-0.67534zm8.3811,2.6797c-0.85-0.35-1.25-3.03-1.25-8.42,0-6.37,0.29-7.92,1.5-7.92,1.1893,0,1.5,1.4379,1.5,6.941,0,3.8175,0.45,7.2191,1,7.559,2.6008,1.6074,0.37133,3.0972-2.75,1.8377zm13.15-0.10303c-0.60516-0.40408-1.6177-1.7176-2.25-2.919-4.2542-8.0824,4.5625-17.711,10.356-11.31,2.1928,2.4231,1.167,3.895-1.5375,2.206-3.99-2.5-6.97-0.35-6.97,5.01,0,4.3376,4.4049,6.3926,7,3.2657,1.5462-1.863,3-1.9382,3-0.15499,0,3.3391-6.488,5.9678-9.6003,3.8897zm13.185-1.1412c-2.5765-2.847-1.7536-8.1575,1.5501-10.003,2.3596-1.318,2.9078-1.2928,5.25,0.24186,1.9729,1.2927,2.6152,2.55,2.6152,5.1191,0,5.9663-5.6817,8.7675-9.4154,4.6419zm6.2192-4.4712c-0.23-2.36-0.79-3.13-2.3-3.13-2.3395,0-3.3002,3.8308-1.5036,5.9956,1.9145,2.3069,4.1476,0.62173,3.8075-2.8732zm6.1962,0.50849,0-5.8692,3.7262-0.60467c2.0494-0.33257,4.1296-0.20125,4.6227,0.29183,0.52867,0.52867,1.8598,0.45761,3.2442-0.17319,3.726-1.6977,5.4069,0.45675,5.4069,6.9301,0,6.9522-2.355,6.8715-2.8073-0.0962-0.24781-3.8172-0.63519-4.6719-2-4.4128-1.2519,0.23762-1.772,1.5558-1.9975,5.0623-0.21389,3.3271-0.7358,4.741-1.75,4.741-1.07-0.01-1.44-1.33-1.44-5.08,0-4.2917-0.26963-5.0221-1.75-4.741-1.3186,0.2504-1.8251,1.501-2.0548,5.0733-0.21389,3.3271-0.7358,4.741-1.75,4.741-1.1,0-1.45-1.42-1.45-5.87zm35.087,4.923c-2.4336-1.504-0.80614-5.4245,2.663-6.4151,4.5467-1.2983,4.1568-3.0314-0.48608-2.1604l-3.7361,0.70089,1.8911-2.0896c3.9484-4.363,8.097-1.8355,8.8846,5.4128l0.54358,5.0024-4.249,0.16444c-2.337,0.0905-4.817-0.18654-5.5111-0.61553zm5.7212-3.3083c0.22558-1.1628-0.24365-1.4444-1.75-1.0505-2.1153,0.55316-2.5784,1.4515-1.3707,2.6592,1.0536,1.0536,2.7765,0.16549,3.1207-1.6086zm7.19-1.62v-5.8692l3.6868-0.59828c5.0716-0.823,6.3132,0.54568,6.3132,6.959,0,4.1134-0.35262,5.3776-1.5,5.3776-1.1362,0-1.5-1.2304-1.5-5.0733,0-4.2917-0.26963-5.0221-1.75-4.741-1.3186,0.2504-1.8251,1.501-2.0548,5.0733-0.21389,3.3271-0.7358,4.741-1.75,4.741-1.1,0-1.45-1.42-1.45-5.87zm-238-23.88l-0.000019-2.75h130.5,130.5l0.00002,2.75,0.00002,2.75h-130.5-130.5l-0.00002-2.75zm13.5-29.28c-9.687-4.72-13.5-12.91-13.5-28.97,0-13.16,1.642-19.17,6.646-24.317,5.212-5.359,8.808-6.943,16.854-7.424,6.1866-0.36965,7.6384-0.08945,12.494,2.4112,5.9817,3.0808,10.558,8.6245,11.622,14.08l0.634,3.25h-5.6116c-5.4473,0-5.6536-0.10049-7.0462-3.4336-2.681-6.421-11.39-8.527-17.694-4.28-5.414,3.64-6.398,6.67-6.398,19.71,0,9.4995,0.32801,12.042,1.8855,14.614,2.556,4.222,6.5529,6.3855,11.796,6.3855,5.2573,0,8.5375-2.0839,10.437-6.6307,1.356-3.25,1.61-3.37,6.894-3.37,6.0974,0,6.5089,0.62468,4.1381,6.2821-2.0947,4.9988-6.2138,9.2919-11.134,11.605-5.9648,2.8038-16.357,2.8428-22.017,0.0827zm137,0.82382c-6.8279-2.3867-12.531-8.7314-13.972-15.543l-0.68733-3.25h6.0794c5.3547,0,6.0795,0.23179,6.0795,1.9442,0,5.956,9.4499,10.107,18.22,8.0031,5.4447-1.3062,7.7803-3.8623,7.7803-8.5148,0-5.5042-3.2173-6.9348-20.177-8.9714-5.5279-0.66384-10.37-3.6766-13.638-8.4848-1.9632-2.8888-2.2955-4.4312-1.9671-9.1284,0.71123-10.171,8.2234-16.632,20.483-17.616,8.1802-0.65663,14.348,1.1436,19.378,5.6555,3.7164,3.3338,7.3804,10.56,6.2676,12.36-0.25,0.41-2.91,0.75-5.9,0.75-4.08,0-5.44-0.36-5.44-1.44,0-2.6145-4.4321-6.6452-8.25-7.5028-7.6315-1.7142-15.75,2.4346-15.75,8.0488,0,4.2856,3.7251,6.5188,12.216,7.3236,10.927,1.0356,14.805,2.3605,18.901,6.457,9.1223,9.1223,6.4251,23.162-5.5182,28.724-4.0926,1.9057-6.679,2.3608-13.1,2.3053-4.4-0.038-9.35-0.54107-11-1.1178zm-92.5-30.37,0-30.589,16.75,0.335c15.695,0.31323,17.029,0.49178,21.18,2.8343,8.2281,4.6436,11.354,15.375,7.1648,24.599-1.5077,3.3199-3.966,5.7965-8.8516,8.9176-0.14136,0.0903,2.1798,5.5235,5.1582,12.074l5.4152,11.91-5.039,0.3068c-2.7714,0.16873-5.5521,0.10987-6.1793-0.13081-0.62721-0.24068-3.3277-5.4412-6.001-11.557l-4.86-11.12h-6.872-6.868v11.5,11.5h-5.5-5.5v-30.584zm31.343-3.526c5.2264-2.3813,6.1203-9.5806,1.7342-13.967-2.82-2.821-3.24-2.92-12.493-2.92h-9.577v9,9h8.9529c4.9241,0,10.05-0.49962,11.39-1.1103zm25.66,3.56v-30.55l5.75,0.2999c3.1625,0.16495,5.6375,0.6374,5.5,1.0499s-0.25,14.025-0.25,30.25v29.5h-5.5-5.5v-30.55zm81,0.0499,0-30.5,5.5,0,5.5,0,0,30.5,0,30.5-5.5,0-5.5,0,0-30.5zm25.688,0.25001l0.19-30.25,5.56-0.3,5.56-0.3v25.55,25.55h14,14v5,5l-19.75,0.00001-19.75,0.00002,0.18827-30.25z"/>
  <path id="path3011" fill="#252122" d="m270,211.5c0-0.825,0.675-1.5,1.5-1.5,1.2894,0,1.8504-0.9942,1.6984-3.0101-0.0211-0.28056-0.96787-2.8681-2.1038-5.75-1.75-4.43-1.84-5.24-0.56-5.24,0.83059,0,1.9624,1.2375,2.5151,2.75,0.55271,1.5125,1.269,3.425,1.5917,4.25,0.38203,0.97665,1.0986,0.0172,2.0537-2.75,0.8624-2.4986,2.0948-4.25,2.9906-4.25,1.0485,0,1.3075,0.54577,0.83054,1.75-0.38122,0.9625-1.6142,4.225-2.74,7.25s-2.4921,6.0625-3.0363,6.75c-1.38,1.74-4.74,1.57-4.74-0.25zm-40-7.5c0-7.2196,0.18711-8,1.9182-8,1.055,0,2.5952-0.25979,3.4227-0.57732,2.1829-0.83766,5.6591,3.1074,5.6591,6.4223,0,3.4898-3.0222,6.4228-6.1642,5.9824-1.9221-0.26941-2.2803,0.0711-2.0229,1.9226,0.20955,1.507-0.20323,2.25-1.25,2.25-1.29,0.01-1.57-1.4-1.57-7.99zm6.8,0.8c1.7172-1.7172,1.4815-5.7547-0.37754-6.4681-0.86765-0.33295-2.2974,0.11455-3.1774,0.99445-1.3061,1.3061-1.3876,2.0655-0.44389,4.1367,1.282,2.8136,2.2114,3.1244,3.9988,1.3369zm-217.74,2.45c0.0345-0.4125,1.272-4.125,2.75-8.25,1.7121-4.7783,3.2284-7.5,4.1783-7.5,0.94149,0,2.5689,2.8565,4.4158,7.7508,3.0455,8.0705,2.9254,10.556-0.34079,7.0504-2.1193-2.2748-6.936-2.0764-8.3657,0.34461-0.84775,1.4355-2.7434,1.8697-2.6376,0.60413zm8.4644-7.998c-0.37933-1.5114-0.87811-2.9364-1.1084-3.1667-0.66486-0.66485-1.2047,0.21366-1.9458,3.1667-0.594,2.38-0.389,2.75,1.53,2.75,1.9186,0,2.124-0.36967,1.5271-2.748zm8.1395,8.0813c-0.364-0.36-0.664-3.06-0.664-5.99,0-4.8894,0.18296-5.312,2.25-5.198,1.2375,0.0683,3.004-0.19707,3.9256-0.58962,2.4676-1.0511,5.03,3.3892,4.6394,8.0394-0.472,5.62-2.815,5.66-2.815,0.05,0-2.49-0.47-4.81-1.044-5.17-1.924-1.19-3.956,1.72-3.956,5.65,0,3.6445-0.79952,4.7447-2.3333,3.2109zm146.41-1.96c-1.14-1.45-2.07-4.09-2.07-5.87,0-4.0483,3.3842-8.5,6.4618-8.5,2.6655,0,7.4081,3.4566,6.2867,4.5821-0.41333,0.41484-1.9051,0.13686-3.3151-0.61774-3.4027-1.821-5.8322-0.28532-6.2516,3.9518-0.52468,5.2999,3.8294,8.1851,6.8534,4.5414,0.86909-1.0472,1.6072-1.2153,2.2988-0.52363,1.5694,1.5694-2.1691,5.066-5.4164,5.066-1.804,0-3.4964-0.92034-4.845-2.6349zm14.582,0.80612c-2.24-2.49-2.08-6.75,0.35-9.18,2.4069-2.4069,3.8402-2.5007,6.7775-0.4433,1.5305,1.072,2.2225,2.5806,2.2225,4.845,0,5.7313-5.797,8.69-9.345,4.7695zm6.1488-4.5489c-0.23-2.36-0.79-3.13-2.3-3.13-1.4628,0-2.0887,0.77669-2.3301,2.8915-0.34908,3.058,1.22,4.7799,3.5432,3.8883,0.88206-0.33848,1.2829-1.6825,1.0907-3.6575zm6.2,0.29c0-4.439,0.33787-5.9622,1.25-5.6351,0.6875,0.24651,2.0375,0.0432,3-0.45185,1.0541-0.54215,2.4562-0.52214,3.5258,0.0503,1.1243,0.6017,2.4036,0.5991,3.4868-0.007,1.1185-0.62595,2.408-0.58441,3.7242,0.11998,1.6463,0.88106,2.0132,2.0887,2.0132,6.6256,0,7.0226-2.3513,7.0151-2.8073-0.009-0.24781-3.8172-0.63519-4.6719-2-4.4128-1.256,0.2384-1.772,1.5609-2.0001,5.1265-0.40061,6.2619-2.5808,5.7432-2.9999-0.71364-0.24781-3.8172-0.63519-4.6719-2-4.4128-1.2519,0.23762-1.772,1.5558-1.9975,5.0623-0.21389,3.3271-0.7358,4.741-1.75,4.741-1.1-0.01-1.44-1.46-1.44-6.09zm34.975,4.5528c-2.0259-2.4411-0.65577-4.7395,3.5253-5.9139,4.3669-1.2266,3.3677-3.2411-1.0568-2.1306-3.1581,0.79263-3.2103-1.1182-0.0696-2.5492,3.6011-1.6408,6.623,0.36592,6.6401,4.4095,0.008,1.7682,0.25553,4.1148,0.55116,5.2148,0.47483,1.7668,0.0136,2.02-3.9564,2.1714-2.7755,0.10588-4.9298-0.35373-5.6337-1.202zm5.9514-1.8804c0.71571-0.86238,0.79841-1.6412,0.21269-2.0032-1.4361-0.88757-4.1388,0.43229-4.1388,2.0212,0,1.8058,2.4217,1.7947,3.9261-0.018zm7.07-2.39c0-5.9672,0.001-5.97,3.25-6.4636,5.3993-0.8203,6.75,0.55751,6.75,6.8853,0,7.0226-2.3513,7.0151-2.8073-0.009-0.24781-3.8171-0.6352-4.6719-2-4.4129-1.1875,0.22536-1.8419,1.6384-2.1927,4.7346-0.78987,6.9721-3,6.431-3-0.73446zm-238-23.7v-2.5h130.5,130.5v2.5,2.5h-130.5-130.5v-2.5z"/>
 </g>
</svg>
