<?xml version="1.0" standalone="no"?>
<!DOCTYPE svg PUBLIC "-//W3C//DTD SVG 1.1//EN"
"http://www.w3.org/Graphics/SVG/1.1/DTD/svg11.dtd">
<!-- Creator: fig2dev Version 3.2 Patchlevel 5c -->
<!-- CreationDate: Thu Nov 18 20:40:58 2010 -->
<!-- Magnification: 1.050 -->
<svg xmlns="http://www.w3.org/2000/svg" width="4.0in" height="3.5in" viewBox="679 1341 4787 4199">
<g style="stroke-width:.025in; fill:none">
<!-- Line -->
<polyline points="2602,3229
2583,3220
2559,3194
2530,3176
2496,3167
2471,3167
2462,3150
2437,3142
2428,3142
2410,3150
2394,3160
2376,3167
2349,3167
2325,3150
2300,3150
2257,3142
2221,3142
2205,3142
2170,3150
2144,3167
2135,3176
2068,3176
1989,3167
1922,3150
1854,3142
1784,3124
1741,3116
1698,3088
1690,3080
1655,3009
1655,2975
1680,2975
1690,2965
1680,2948
1671,2938
1655,2931
1637,2921
1622,2903
1594,2887
1570,2859
1543,2850
1518,2877
1484,2921
1442,2975
1399,3027
1356,3088
1311,3150
1261,3211
1210,3273
1088,3459
969,3644
882,3838
804,4023
752,4198
719,4366
691,4524
691,4682
701,4832
719,4964
762,5087
813,5203
882,5299
951,5387
1045,5448
1140,5502
1210,5510
1261,5528
1329,5528
1399,5528
1476,5528
1537,5528
1622,5510
1698,5492
1775,5466
1861,5448
1946,5404
2034,5370
2127,5334
2214,5291
2306,5229
2402,5175
2504,5123
2602,5061
2697,4991
2800,4920
2901,4850
3005,4780
3108,4691
3203,4613
3304,4524
3417,4445
3511,4348
3623,4260
3725,4163
3829,4067
3931,3961
4044,3855
4233,3634
4439,3440
4612,3229
4775,3027
4922,2815
5050,2621
5161,2436
5265,2261
5332,2093
5393,1934
5436,1802
5454,1671
5454,1566
5426,1485
5383,1416
5325,1372
5265,1354
5204,1354
5127,1354
5050,1362
4972,1380
4886,1416
4775,1441
4681,1485
4775,1441
4879,1416
4956,1388
5041,1380
5102,1372
5179,1372
5231,1380
5282,1406
5350,1441
5383,1503
5411,1591
5393,1697
5367,1812
5308,1934
5231,2085
5135,2235
5023,2392
4895,2577
4732,2753
4577,2948
4397,3142
4199,3353
4001,3546
3786,3750
3564,3951
3356,4128
3185,4286
2996,4418
2834,4533
2679,4629
2522,4726
2394,4788
2272,4850
2154,4902
2050,4930
1964,4946
1869,4955
1808,4955
1741,4955
1690,4938
1647,4912
1604,4876
1570,4832
1552,4770
1543,4701
1552,4621
1570,4524
1622,4428
1665,4312
1732,4180
1818,4057
1940,3907
2068,3750
2221,3582
2394,3415
2602,3229
" style="stroke:#ff0000;stroke-width:8;
stroke-linejoin:miter; stroke-linecap:butt;
fill:#ff0000;
"/>
<!-- Line -->
<polygon points="2644,1900
2723,1899
2807,1908
2911,1934
3005,1987
3082,2058
3151,2137
3194,2235
3228,2331
3237,2436
3228,2542
3194,2648
3151,2745
3082,2825
3005,2894
2911,2938
2807,2975
2687,2982
2669,2982
2636,2975
2611,2975
2583,2975
2575,2975
2559,2982
2530,2992
2522,3000
2504,2992
2504,2975
2496,2948
2480,2938
2453,2931
2428,2921
2410,2903
2386,2887
2367,2877
2359,2869
2343,2859
2316,2859
2300,2859
2282,2859
2264,2850
2257,2843
2230,2825
2196,2833
2162,2833
2144,2807
2135,2781
2111,2737
2101,2683
2101,2639
2101,2621
2083,2630
2058,2639
2040,2621
2034,2614
2025,2614
1989,2621
1964,2639
1940,2648
1912,2658
1897,2658
1887,2648
1887,2639
1869,2639
1845,2639
1818,2630
1808,2630
1802,2621
1802,2596
1818,2570
1887,2508
1946,2419
2016,2348
2083,2261
2154,2181
2230,2102
2300,2040
2359,1996
2386,1980
2428,1970
2471,1952
2522,1926
2567,1918
2611,1908
2644,1900
" style="stroke:#ff0000;stroke-width:8;
stroke-linejoin:miter; stroke-linecap:butt;
fill:#ff0000;
"/>
</g>
</svg>
