<?xml version="1.0" encoding="UTF-8" standalone="no"?>
<!-- Created with Inkscape (http://www.inkscape.org/) -->

<svg
   xmlns:dc="http://purl.org/dc/elements/1.1/"
   xmlns:cc="http://creativecommons.org/ns#"
   xmlns:rdf="http://www.w3.org/1999/02/22-rdf-syntax-ns#"
   xmlns:svg="http://www.w3.org/2000/svg"
   xmlns="http://www.w3.org/2000/svg"
   xmlns:sodipodi="http://sodipodi.sourceforge.net/DTD/sodipodi-0.dtd"
   xmlns:inkscape="http://www.inkscape.org/namespaces/inkscape"
   width="173.88957"
   height="34.778885"
   id="svg2992"
   version="1.1"
   inkscape:version="0.47 r22583"
   sodipodi:docname="New document 2">
  <defs
     id="defs2994">
    <inkscape:perspective
       sodipodi:type="inkscape:persp3d"
       inkscape:vp_x="0 : 526.18109 : 1"
       inkscape:vp_y="0 : 1000 : 0"
       inkscape:vp_z="744.09448 : 526.18109 : 1"
       inkscape:persp3d-origin="372.04724 : 350.78739 : 1"
       id="perspective3000" />
    <inkscape:perspective
       id="perspective2971"
       inkscape:persp3d-origin="0.5 : 0.33333333 : 1"
       inkscape:vp_z="1 : 0.5 : 1"
       inkscape:vp_y="0 : 1000 : 0"
       inkscape:vp_x="0 : 0.5 : 1"
       sodipodi:type="inkscape:persp3d" />
    <clipPath
       clipPathUnits="userSpaceOnUse"
       id="clipPath20">
      <path
         d="M 0,465.117 0,0 l 2325.52,0 0,465.117"
         id="path22" />
    </clipPath>
  </defs>
  <sodipodi:namedview
     id="base"
     pagecolor="#ffffff"
     bordercolor="#666666"
     borderopacity="1.0"
     inkscape:pageopacity="0.0"
     inkscape:pageshadow="2"
     inkscape:zoom="0.35"
     inkscape:cx="187.65907"
     inkscape:cy="-105.4677"
     inkscape:document-units="px"
     inkscape:current-layer="layer1"
     showgrid="false"
     inkscape:window-width="551"
     inkscape:window-height="483"
     inkscape:window-x="721"
     inkscape:window-y="0"
     inkscape:window-maximized="0" />
  <metadata
     id="metadata2997">
    <rdf:RDF>
      <cc:Work
         rdf:about="">
        <dc:format>image/svg+xml</dc:format>
        <dc:type
           rdf:resource="http://purl.org/dc/dcmitype/StillImage" />
        <dc:title></dc:title>
      </cc:Work>
    </rdf:RDF>
  </metadata>
  <g
     inkscape:label="Layer 1"
     inkscape:groupmode="layer"
     id="layer1"
     transform="translate(-187.34093,-163.54416)">
    <g
       id="g14"
       transform="matrix(0.07477449,0,0,-0.07477449,187.34093,198.32305)">
      <g
         id="g16">
        <g
           id="g18"
           clip-path="url(#clipPath20)">
          <path
             d="m 734.391,78.2227 c -14.903,0.8242 -29.711,1.9921 -44.579,1.9921 -14.828,0 -29.667,-1.1679 -44.503,-1.9921 l 0,239.3593 c -42.196,0 -79.625,-2.695 -110.485,-5.449 1.207,5.449 2.981,10.933 2.981,16.797 0,5.457 -1.774,10.906 -2.981,16.34 l 305.856,0 c -1.153,-5.434 -2.95,-10.883 -2.95,-16.34 0,-5.864 1.797,-11.348 2.95,-16.797 -35.051,2.754 -70.059,5.449 -106.289,5.449 l 0,-239.3593"
             style="fill:#15356f;fill-opacity:1;fill-rule:nonzero;stroke:none"
             id="path24" />
          <path
             d="m 1138.54,345.27 c -1.25,-5.434 -3.12,-11.325 -3.12,-16.786 0,-5.418 1.87,-11.257 3.12,-16.742 -38.28,3.145 -80.89,6.231 -144.931,5.485 l 0,-83.711 65.261,0 c 28.21,0 53.93,1.578 77.21,3.515 -1.3,-5.469 -3.17,-11.293 -3.17,-16.703 0,-5.449 1.87,-11.316 3.17,-16.769 -23.28,1.914 -49,3.527 -77.21,3.527 l -65.261,0 0,-98.867 c 64.041,0.355 106.651,2.324 144.931,5.472 -1.25,-5.472 -3.12,-11.273 -3.12,-16.734 0,-5.457 1.87,-11.3476 3.12,-16.7422 l -238.97,0 0,265.0552 238.97,0"
             style="fill:#15356f;fill-opacity:1;fill-rule:nonzero;stroke:none"
             id="path26" />
          <path
             d="m 1518.56,123.414 -12.3,-33.5273 c -33.34,-11.9961 -72.75,-16.7031 -109.92,-16.7031 -118.85,0 -208.87,51.3944 -208.87,131.1364 0,101.633 100,147.942 221.09,147.942 36.63,0 81.03,-6.653 113.25,-19.055 -4.99,-13.277 -8.31,-26.527 -12.76,-40.141 l -7.82,0 c -20.51,21.028 -56.04,35.864 -92.1,35.864 -92.26,0 -129.44,-61.914 -129.44,-119.164 0,-66.496 46.65,-113.223 132.16,-113.223 34.45,0 74.38,12.449 99.39,29.195 l 7.32,-2.324"
             style="fill:#15356f;fill-opacity:1;fill-rule:nonzero;stroke:none"
             id="path28" />
          <path
             d="m 1583.52,345.27 55,0 c 78.81,-60.34 161.62,-119.532 239.9,-182.161 l -0.07,182.161 c 7.23,-0.836 15.07,-1.208 22.25,-1.208 7.23,0 15,0.372 22.23,1.208 l 0,-267.0473 -47.16,0.3945 c -64.49,50.2308 -124.39,98.1168 -187.18,144.4138 l -60.54,44.356 0,-188.3401 c -7.22,0.3828 -14.97,1.1679 -22.22,1.1679 -7.23,0 -15,-0.7851 -22.21,-1.1679 l 0,266.2231"
             style="fill:#15356f;fill-opacity:1;fill-rule:nonzero;stroke:none"
             id="path30" />
          <path
             d="m 2071.66,183.285 53.21,90.738 50.25,-90.738 -103.46,0 z m 116.47,-23.726 c 15.26,-26.051 27.12,-52.508 40.08,-81.3363 16.44,0.8242 32.33,1.9921 48.68,1.9921 16.43,0 32.24,-1.1679 48.63,-1.9921 L 2167.77,348.746 c -7.33,-0.824 -14.11,-1.18 -21.47,-1.18 -7.4,0 -14.11,0.356 -21.43,1.18 L 1963.18,79.0469 c 8.94,0.3828 18.02,1.1679 27.09,1.1679 9,0 17.54,-0.7851 26.51,-1.1679 10.81,26.8591 24.86,50.9691 39.63,80.5121 l 131.72,0"
             style="fill:#15356f;fill-opacity:1;fill-rule:nonzero;stroke:none"
             id="path32" />
          <path
             d="m 319.734,373.285 c 3.719,-42.515 -26.375,-73.223 -86.609,-129.613 -7.789,-7.07 -14.898,-13.828 -21.648,-20.567 C 190.496,202.523 174.941,183.629 163.414,166.074 145.145,138.047 138.375,113.75 140.082,92.4727 143.441,67.8359 151.578,48.9414 163.414,34.7656 175.605,19.5703 192.172,9.76953 211.477,3.36719 211.809,3.00781 212.152,3.00781 212.473,3.00781 226.34,-0.679688 234.48,-0.679688 248.027,0 c 116.371,12.8203 206.352,112.043 206.352,231.887 0,128.23 -103.844,233.23 -231.055,233.23 -4.066,0 -8.129,-0.355 -11.847,-0.355 -1.727,-0.344 -3.395,-0.344 -4.758,-0.344 1.363,-0.664 3.031,-1.02 4.758,-1.344 55.812,-16.215 102.859,-45.222 108.257,-89.789"
             style="fill:#15356f;fill-opacity:1;fill-rule:nonzero;stroke:none"
             id="path34" />
          <path
             d="m 7.4375,129.254 c -0.01172,0.039 -0.07031,0.121 -0.09375,0.172 0.03906,-0.172 0.09375,-0.207 0.09375,-0.172"
             style="fill:#bcbfc6;fill-opacity:1;fill-rule:nonzero;stroke:none"
             id="path36" />
          <path
             d="m 211.477,383.438 c 3.031,-7.438 5.054,-15.196 5.054,-22.973 0,-12.504 -1.683,-22.281 -5.054,-31.387 -6.774,-16.855 -21.336,-30.047 -48.063,-49.273 -10.484,-7.758 -22.676,-15.86 -36.875,-26.016 C 118.434,248.418 111,243.016 103.883,237.969 95.0703,231.887 87.3047,225.77 80.1836,220.055 32.832,182.574 15.9023,155.27 21.3203,124.547 30.7734,94.1562 54.4727,69.1875 80.1836,49.9453 87.9688,43.8477 96.0703,38.4531 103.883,33.3984 116.395,25.6523 128.574,19.2461 138.047,14.1602 127.551,21.2539 115.367,30.375 103.883,41.1797 95.4258,48.5859 87.3047,56.6836 80.1836,65.4727 62.6055,86.0625 49.3867,108.672 49.0781,130.273 c -0.6953,23.321 7.7735,43.891 31.1055,68.86 6.4414,7.105 14.5586,14.496 23.6994,22.629 12.512,10.804 27.051,22.597 44.668,35.406 5.058,4.402 10.133,8.105 14.863,11.816 19.981,15.536 35.871,27.368 48.063,38.504 18.933,17.207 27.746,31.739 27.402,53.996 -1.363,19.95 -11.832,36.461 -27.402,49.961 -13.188,11.114 -29.782,19.91 -48.063,26.649 -10.148,3.718 -20.976,6.75 -31.793,8.765 11.156,-3.695 21.645,-8.765 31.793,-14.492 21.668,-12.836 39.582,-29.703 48.063,-48.929"
             style="fill:#f2581a;fill-opacity:1;fill-rule:nonzero;stroke:none"
             id="path38" />
          <path
             d="m 262.207,363.164 c -1.352,-35.441 -9.141,-56.031 -50.73,-90.762 -9.473,-7.793 -20.317,-16.23 -33.161,-25.668 -5.097,-4.058 -10.14,-7.785 -14.902,-11.496 -25.367,-19.226 -44.98,-35.441 -59.531,-49.601 C 93.0508,174.828 85.2695,165.039 80.1836,155.586 72.7695,142.43 70.375,129.254 73.0859,115.078 c 1.6836,-7.769 4.0625,-14.848 7.0977,-21.6092 5.7695,-13.4727 14.2226,-25.2891 23.6994,-36.086 17.926,-19.9101 40.242,-35.1211 59.531,-45.8906 4.059,-2.37111 8.125,-4.75782 12.191,-6.76173 -4.066,3.04687 -8.132,6.06253 -12.191,9.08593 -31.461,24.9844 -58.516,60.7695 -59.215,101.2616 -0.316,31.402 15.906,58.399 59.215,100.934 10.844,10.461 23.356,22.273 37.91,35.097 3.379,3.028 6.758,6.059 10.153,9.133 53.8,48.574 74.421,72.918 70.714,113.043 -1.683,36.477 -32.48,58.75 -70.714,72.594 -13.188,4.363 -27.418,8.09 -41.629,10.797 14.211,-4.715 28.441,-11.5 41.629,-19.918 28.761,-18.555 51.085,-45.246 50.73,-73.594"
             style="fill:#f2581a;fill-opacity:1;fill-rule:nonzero;stroke:none"
             id="path40" />
          <path
             d="m 7.34375,129.426 c -0.53125,1.512 -3.60937,13.004 -3.28516,20.086 7.44921,53.652 41.26951,77.625 76.12501,100.949 7.4492,5.035 15.2422,10.113 23.0074,15.512 0,0.32 0.332,0.32 0.692,0.636 24.355,16.243 44.988,30.063 59.531,43.887 15.59,14.879 24.027,30.09 23.356,48.613 -1.364,15.528 -9.797,29.727 -23.356,41.848 -14.863,13.18 -35.863,23.641 -59.531,30.398 -1.356,0.364 -3.063,0.68 -4.4103,1.012 1.3473,-0.648 3.0543,-1.363 4.4103,-2.027 29.773,-13.184 50.742,-27.676 59.531,-50.625 2.367,-6.43 3.719,-13.184 4.406,-20.938 0,-9.425 -1.351,-17.898 -4.406,-25.617 -7.098,-19.254 -24.691,-35.816 -59.531,-56.738 -6.7736,-4.02 -14.215,-8.445 -22.6799,-12.809 -0.3398,-0.371 -0.6679,-0.687 -1.0195,-1.07 C 33.8438,237.266 -12.8438,201.48 0.34375,148.148 c 0.652344,-3.601 5.80859,-16.507 7,-18.722"
             style="fill:#f2581a;fill-opacity:1;fill-rule:nonzero;stroke:none"
             id="path42" />
          <path
             d="m 103.883,297.012 c 17.926,15.566 29.773,33.758 31.793,57.379 0.347,24.316 -12.531,40.847 -31.793,51.3 -7.1135,3.762 -15.2502,6.418 -23.6994,8.789 -2.3555,0.36 -4.7383,0.997 -7.0977,1.356 2.3594,-0.996 4.7422,-1.699 7.0977,-2.723 9.4844,-4.031 17.2461,-8.738 23.6994,-14.812 10.82,-10.832 16.566,-25.313 16.222,-45.278 -0.664,-13.449 -6.421,-25.964 -16.222,-38.097 C 97.7734,307.133 89.668,299.73 80.1836,292.297 60.2227,276.422 33.1641,260.242 0,242.336 c 29.0742,12.133 57.1914,23.957 80.1836,37.809 8.4492,5.039 16.5859,10.796 23.6994,16.867"
             style="fill:#f2581a;fill-opacity:1;fill-rule:nonzero;stroke:none"
             id="path44" />
          <path
             d="m 49.7344,307.82 c 12.164,0 23.3515,6.086 30.4492,15.168 4.7266,6.778 7.7852,14.856 7.7852,23.668 0,8.739 -3.0586,16.856 -7.7852,23.27 -7.0977,9.429 -18.2852,15.187 -30.4492,15.187 -20.9727,0 -38.2266,-17.215 -38.2266,-38.457 0,-21.281 17.2539,-38.836 38.2266,-38.836"
             style="fill:#f2581a;fill-opacity:1;fill-rule:nonzero;stroke:none"
             id="path46" />
        </g>
      </g>
    </g>
  </g>
</svg>
