<?xml version="1.0" encoding="UTF-8" standalone="no"?>
<!-- Created with Inkscape (http://www.inkscape.org/) -->

<svg
   xmlns:dc="http://purl.org/dc/elements/1.1/"
   xmlns:cc="http://creativecommons.org/ns#"
   xmlns:rdf="http://www.w3.org/1999/02/22-rdf-syntax-ns#"
   xmlns:svg="http://www.w3.org/2000/svg"
   xmlns="http://www.w3.org/2000/svg"
   xmlns:sodipodi="http://sodipodi.sourceforge.net/DTD/sodipodi-0.dtd"
   xmlns:inkscape="http://www.inkscape.org/namespaces/inkscape"
   version="1.1"
   id="svg2"
   width="228.27754"
   height="351.38837"
   viewBox="0 0 228.27754 351.38836"
   sodipodi:docname="utn..svg"
   inkscape:version="0.92.1 r15371">
  <metadata
     id="metadata8">
    <rdf:RDF>
      <cc:Work
         rdf:about="">
        <dc:format>image/svg+xml</dc:format>
        <dc:type
           rdf:resource="http://purl.org/dc/dcmitype/StillImage" />
        <dc:title></dc:title>
      </cc:Work>
    </rdf:RDF>
  </metadata>
  <defs
     id="defs6" />
  <sodipodi:namedview
     pagecolor="#ffffff"
     bordercolor="#666666"
     borderopacity="1"
     objecttolerance="10"
     gridtolerance="10"
     guidetolerance="10"
     inkscape:pageopacity="0"
     inkscape:pageshadow="2"
     inkscape:window-width="2560"
     inkscape:window-height="1503"
     id="namedview4"
     showgrid="false"
     fit-margin-top="0"
     fit-margin-left="0"
     fit-margin-right="0"
     fit-margin-bottom="0"
     inkscape:zoom="2.9585755"
     inkscape:cx="154.86561"
     inkscape:cy="160.339"
     inkscape:window-x="0"
     inkscape:window-y="27"
     inkscape:window-maximized="1"
     inkscape:current-layer="svg2" />
  <path
     style="fill:#000000;stroke-width:1.33333337"
     d="m 46.1596,350.7102 c -8.79959,-1.33995 -13.11452,-4.28274 -16.48325,-11.2416 -2.38622,-4.92927 -2.73214,-8.20722 -2.73214,-25.88955 v -20.24571 h 8.66666 8.66667 v 18.75432 c 0,10.66972 0.60972,19.8936 1.4144,21.39716 3.42853,6.40627 14.782286,5.67843 17.364446,-1.11317 0.67164,-1.76655 1.22116,-11.27284 1.22116,-21.12511 v -17.9132 h 8.66667 8.66666 v 19.13438 c 0,20.04592 -1.12685,26.07858 -5.85136,31.32564 -5.79752,6.43876 -16.42722,8.92268 -29.599916,6.91684 z m 59.45128,-21.37686 v -21.33333 h -8.666664 -8.66667 v -7.33333 -7.33334 h 26.666674 26.66666 v 7.33334 7.33333 h -9.33333 -9.33333 v 21.33333 21.33334 h -8.66667 -8.66667 z m 42.66667,-7.39696 V 293.2061 l 8.21271,0.39695 8.21272,0.39696 10.45394,15.21293 10.45396,15.21292 v -15.54625 -15.54627 h 8.66667 8.66667 v 28.66667 28.66667 h -8.56654 -8.56654 l -10.43346,-15 -10.43346,-15 -0.377,15 -0.377,15 h -7.95634 -7.95633 z M 0.27866,285.66668 c 6.1e-4,-1.28334 0.60921,-8.7459 1.35245,-16.58347 2.16411,-22.82106 9.64831,-45.06344 20.86953,-62.02236 6.97281,-10.5382 21.84465,-25.97108 30.17829,-31.31678 L 59.555036,171.33334 29.91629,170.9745 0.27754,170.61566 V 143.9745 117.33334 H 30.42948 60.581426 L 52.48895,111.92941 C 41.97334,104.90734 28.42815,90.188743 20.24615,76.893453 9.18395,58.917953 3.04938,38.043243 0.88171,11 L 0,0 h 25.4721 25.47211 v 5.120049 c 0,7.687968 4.60761,24.183487 9.423866,33.737986 2.8776,5.708578 7.80394,11.957378 15.09086,19.141968 l 10.81861,10.66666 0.35584,-34.333329 L 86.989226,0 h 26.644164 26.64416 v 34.000001 c 0,20.407682 0.50265,34.000002 1.25733,34.000002 2.46079,0 17.31299,-14.91217 22.22959,-22.31935 6.11168,-9.207634 12.03155,-25.832758 13.25004,-37.210957 L 177.92154,0 h 24.28912 c 13.35901,0 24.55448,0.265365 24.87881,0.5897 1.33423,1.334227 -1.59344,30.144904 -4.02855,39.644211 -7.68674,29.985892 -25.93754,57.384156 -48.0989,72.206519 l -7.31554,4.89291 h 30.31554 30.31553 v 26.66667 26.66666 l -30.33333,0.005 -30.33334,0.005 4.66667,2.81815 c 31.29453,18.89841 54.66667,63.65313 54.66667,104.67987 v 9.82534 h -24.51134 -24.51134 l -0.90703,-8.46969 c -1.15233,-10.76032 -7.14659,-28.1518 -12.66933,-36.75827 -4.29218,-6.68945 -20.38324,-22.77273 -22.78308,-22.77273 -0.79026,0 -1.28455,13.08301 -1.28455,34 v 34 H 113.61088 86.944216 v -34.04691 -34.04692 l -3,1.59364 c -5.80334,3.0828 -18.01079,17.18164 -22.84954,26.3898 C 55.79419,257.97576 50.94421,274.6945 50.94421,282.87929 v 5.12005 H 25.61087 c -23.23851,0 -25.33323,-0.19295 -25.33221,-2.33333 z"
     id="path12"
     inkscape:connector-curvature="0" />
</svg>
